<?xml version="1.0" encoding="UTF-8" standalone="no"?>
<!-- Created with Inkscape (http://www.inkscape.org/) -->

<svg
   xmlns:dc="http://purl.org/dc/elements/1.1/"
   xmlns:cc="http://creativecommons.org/ns#"
   xmlns:rdf="http://www.w3.org/1999/02/22-rdf-syntax-ns#"
   xmlns:svg="http://www.w3.org/2000/svg"
   xmlns="http://www.w3.org/2000/svg"
   xmlns:sodipodi="http://sodipodi.sourceforge.net/DTD/sodipodi-0.dtd"
   xmlns:inkscape="http://www.inkscape.org/namespaces/inkscape"
   version="1.1"
   id="svg2"
   xml:space="preserve"
   width="733.33331"
   height="770.66669"
   viewBox="0 0 733.33331 770.66669"
   sodipodi:docname="fhmm.svg"
   inkscape:version="0.92.1 r"><metadata
     id="metadata8"><rdf:RDF><cc:Work
         rdf:about=""><dc:format>image/svg+xml</dc:format><dc:type
           rdf:resource="http://purl.org/dc/dcmitype/StillImage" /><dc:title></dc:title></cc:Work></rdf:RDF></metadata><defs
     id="defs6" /><sodipodi:namedview
     pagecolor="#ffffff"
     bordercolor="#666666"
     borderopacity="1"
     objecttolerance="10"
     gridtolerance="10"
     guidetolerance="10"
     inkscape:pageopacity="0"
     inkscape:pageshadow="2"
     inkscape:window-width="1366"
     inkscape:window-height="768"
     id="namedview4"
     showgrid="false"
     inkscape:zoom="0.69809687"
     inkscape:cx="368.09912"
     inkscape:cy="385.33334"
     inkscape:window-x="0"
     inkscape:window-y="1080"
     inkscape:window-maximized="1"
     inkscape:current-layer="g10" /><g
     id="g10"
     inkscape:groupmode="layer"
     inkscape:label="ink_ext_XXXXXX"
     transform="matrix(1.3333333,0,0,-1.3333333,0,770.66667)"><path
       inkscape:connector-curvature="0"
       id="path14"
       style="fill:#000000;fill-opacity:1;fill-rule:evenodd;stroke:none;stroke-width:0.1"
       d="m 280.957,343.374 v 0.141 l -0.07,0.207 v 0.344 l -0.071,0.207 -0.066,0.136 -0.07,0.211 -0.071,0.137 -0.066,0.137 -0.07,0.207 -0.071,0.14 -0.066,0.137 -0.141,0.137 -0.066,0.14 -0.141,0.137 -0.136,0.141 -0.137,0.066 -0.277,0.277 -0.141,0.071 -0.137,0.137 -0.137,0.07 -0.14,0.066 -0.207,0.071 -0.137,0.07 -0.207,0.066 -0.141,0.071 h -0.207 l -0.136,0.07 h -0.551 c -2.004,0 -3.664,-1.66 -3.664,-3.594 0,-2.004 1.66,-3.66 3.664,-3.66 2,0 3.66,1.656 3.66,3.66 z" /><path
       inkscape:connector-curvature="0"
       id="path16"
       style="fill:#000000;fill-opacity:1;fill-rule:evenodd;stroke:none;stroke-width:0.1"
       d="m 280.957,315.816 v 0.207 l -0.07,0.136 v 0.414 l -0.071,0.141 -0.066,0.207 -0.141,0.273 -0.066,0.207 -0.07,0.141 -0.071,0.137 -0.066,0.14 -0.141,0.137 -0.066,0.137 -0.555,0.555 -0.136,0.066 -0.141,0.141 -0.137,0.07 -0.137,0.066 -0.14,0.071 -0.207,0.136 h -0.137 l -0.207,0.071 -0.141,0.07 -0.207,0.066 h -0.343 l -0.207,0.071 h -0.137 c -2.004,0 -3.664,-1.657 -3.664,-3.66 0,-2.004 1.66,-3.661 3.664,-3.661 2,0 3.66,1.657 3.66,3.661 z" /><path
       inkscape:connector-curvature="0"
       id="path18"
       style="fill:#000000;fill-opacity:1;fill-rule:evenodd;stroke:none;stroke-width:0.1"
       d="m 280.957,288.323 v 0.137 l -0.07,0.207 v 0.348 l -0.071,0.207 -0.066,0.137 -0.07,0.207 -0.071,0.14 -0.066,0.137 -0.07,0.207 -0.071,0.137 -0.066,0.14 -0.141,0.137 -0.066,0.141 -0.141,0.136 -0.136,0.137 -0.137,0.07 -0.141,0.137 -0.136,0.141 -0.141,0.066 -0.137,0.141 -0.137,0.066 -0.14,0.07 -0.207,0.071 -0.137,0.066 -0.207,0.07 -0.141,0.071 h -0.207 l -0.136,0.066 h -0.551 c -2.004,0 -3.664,-1.656 -3.664,-3.59 0,-2.004 1.66,-3.66 3.664,-3.66 2,0 3.66,1.656 3.66,3.66 z" /><path
       inkscape:connector-curvature="0"
       id="path20"
       style="fill:#000000;fill-opacity:1;fill-rule:evenodd;stroke:none;stroke-width:0.1"
       d="m 262.215,545.433 v 0.125 l -0.039,0.039 v 0.043 l -0.043,0.039 -0.039,0.039 h -0.043 v 0.043 h -0.039 l -0.043,0.039 h -0.203 c -0.204,0 -0.204,-0.039 -0.739,-0.57 l -1.922,-2.332 c -1.062,1.921 -3.191,2.902 -5.851,2.902 -5.199,0 -10.07,-4.664 -10.07,-9.574 0,-3.278 2.168,-5.16 4.214,-5.774 l 4.379,-1.144 c 1.516,-0.367 3.766,-0.985 3.766,-4.297 0,-3.645 -3.355,-7.492 -7.367,-7.492 -2.617,0 -7.121,0.902 -7.121,5.937 0,0.981 0.207,1.961 0.246,2.207 0.043,0.164 0.082,0.207 0.082,0.289 0,0.407 -0.285,0.449 -0.492,0.449 -0.203,0 -0.286,-0.042 -0.407,-0.164 -0.164,-0.164 -2.457,-9.453 -2.457,-9.578 0,-0.246 0.203,-0.41 0.45,-0.41 0.207,0 0.246,0.043 0.738,0.617 l 2.004,2.332 c 1.761,-2.375 4.543,-2.949 6.875,-2.949 5.566,0 10.398,5.406 10.398,10.481 0,2.781 -1.39,4.175 -2.008,4.746 -0.941,0.941 -1.554,1.105 -5.195,2.008 -0.902,0.242 -2.375,0.652 -2.742,0.734 -1.106,0.371 -2.496,1.555 -2.496,3.726 0,3.274 3.273,6.754 7.16,6.754 3.398,0 5.894,-1.761 5.894,-6.304 0,-1.309 -0.164,-2.047 -0.164,-2.293 0,-0.039 0,-0.41 0.493,-0.41 0.41,0 0.449,0.125 0.57,0.82 z" /><path
       inkscape:connector-curvature="0"
       id="path22"
       style="fill:#000000;fill-opacity:1;fill-rule:evenodd;stroke:none;stroke-width:0.1"
       d="m 273.43,559.675 -0.492,-0.367 -0.489,-0.367 -0.453,-0.368 -0.449,-0.41 -0.41,-0.41 -0.367,-0.41 -0.368,-0.449 -0.367,-0.41 -0.328,-0.45 -0.289,-0.449 -0.285,-0.453 -0.285,-0.449 -0.246,-0.492 -0.247,-0.45 -0.203,-0.492 -0.207,-0.449 -0.203,-0.492 -0.164,-0.489 -0.164,-0.453 -0.121,-0.488 -0.125,-0.453 -0.121,-0.488 -0.082,-0.453 -0.125,-0.489 -0.039,-0.453 -0.082,-0.449 -0.043,-0.449 -0.039,-0.45 -0.043,-0.453 -0.039,-0.406 v -0.859 c 0,-4.012 1.187,-10.235 6.875,-14.203 0.207,0 0.574,0 0.574,0.328 0,0.164 -0.082,0.246 -0.285,0.406 -3.809,3.441 -5.199,8.269 -5.199,13.426 0,7.695 2.945,11.461 5.277,13.59 0.125,0.082 0.207,0.164 0.207,0.328 0,0.324 -0.367,0.324 -0.574,0.324 z" /><path
       inkscape:connector-curvature="0"
       id="path24"
       style="fill:#000000;fill-opacity:1;fill-rule:evenodd;stroke:none;stroke-width:0.1"
       d="m 285.586,556.444 v 0.407 l -0.039,0.043 v 0.121 l -0.043,0.043 v 0.039 h -0.039 v 0.043 h -0.043 v 0.039 h -0.121 v 0.043 h -0.574 c -1.84,-1.762 -4.422,-1.801 -5.606,-1.801 v -1.023 c 0.695,0 2.578,0 4.133,0.777 v -14.488 c 0,-0.942 0,-1.313 -2.867,-1.313 h -1.063 v -1.023 c 0.492,0 4.012,0.125 5.074,0.125 0.903,0 4.504,-0.125 5.157,-0.125 v 1.023 h -1.102 c -2.867,0 -2.867,0.371 -2.867,1.313 z" /><path
       inkscape:connector-curvature="0"
       id="path26"
       style="fill:#000000;fill-opacity:1;fill-rule:evenodd;stroke:none;stroke-width:0.1"
       d="m 294.836,559.675 h -0.328 v -0.039 h -0.082 v -0.043 h -0.039 l -0.043,-0.039 v -0.039 h -0.039 v -0.164 c 0,-0.164 0.082,-0.246 0.246,-0.41 2.453,-2.25 5.195,-6.098 5.195,-13.465 0,-5.938 -1.84,-10.438 -4.949,-13.223 -0.492,-0.488 -0.492,-0.531 -0.492,-0.652 0,-0.164 0.082,-0.328 0.367,-0.328 0.328,0 3.07,1.839 4.953,5.402 1.227,2.375 2.086,5.441 2.086,8.758 0,4.051 -1.227,10.273 -6.875,14.242 z" /><path
       inkscape:connector-curvature="0"
       id="path28"
       style="fill:#000000;fill-opacity:1;fill-rule:evenodd;stroke:none;stroke-width:0.1"
       d="m 267.945,518.378 h 2.907 c 0.574,0 0.941,0 0.941,0.613 0,0.41 -0.367,0.41 -0.859,0.41 h -2.743 l 1.063,4.215 c 0.043,0.125 0.082,0.289 0.082,0.371 0,0.532 -0.367,0.942 -0.941,0.942 -0.735,0 -1.145,-0.492 -1.348,-1.231 -0.207,-0.734 0.164,0.657 -1.106,-4.297 h -2.906 c -0.531,0 -0.902,0 -0.902,-0.613 0,-0.41 0.328,-0.41 0.82,-0.41 h 2.742 l -1.679,-6.711 c -0.204,-0.738 -0.45,-1.762 -0.45,-2.129 0,-1.676 1.434,-2.699 3.071,-2.699 3.191,0 4.992,4.008 4.992,4.336 0,0.41 -0.367,0.41 -0.492,0.41 -0.325,0 -0.367,-0.082 -0.571,-0.574 -0.82,-1.758 -2.254,-3.356 -3.847,-3.356 -0.614,0 -0.985,0.368 -0.985,1.391 0,0.289 0.082,0.859 0.164,1.148 z" /><path
       inkscape:connector-curvature="0"
       id="path30"
       style="fill:none;stroke:#000000;stroke-width:0.80000001;stroke-linecap:butt;stroke-linejoin:miter;stroke-miterlimit:4;stroke-dasharray:none;stroke-opacity:1"
       d="m 322.434,530.535 c 0,-25.469 -20.645,-46.114 -46.11,-46.114 -25.469,0 -46.113,20.645 -46.113,46.114 0,25.464 20.644,46.109 46.113,46.109 25.465,0 46.11,-20.645 46.11,-46.109 z" /><path
       inkscape:connector-curvature="0"
       id="path32"
       style="fill:#000000;fill-opacity:1;fill-rule:evenodd;stroke:none;stroke-width:0.1"
       d="m 259.438,232.913 v 0.121 l -0.043,0.043 v 0.039 l -0.04,0.043 -0.043,0.039 h -0.039 v 0.043 h -0.043 l -0.039,0.039 h -0.203 c -0.207,0 -0.207,-0.039 -0.738,-0.57 l -1.922,-2.336 c -1.066,1.926 -3.195,2.906 -5.855,2.906 -5.196,0 -10.067,-4.664 -10.067,-9.578 0,-3.273 2.168,-5.156 4.215,-5.769 L 249,216.788 c 1.516,-0.371 3.766,-0.984 3.766,-4.297 0,-3.644 -3.356,-7.492 -7.368,-7.492 -2.621,0 -7.121,0.902 -7.121,5.934 0,0.984 0.203,1.965 0.246,2.211 0.039,0.164 0.082,0.207 0.082,0.289 0,0.406 -0.289,0.449 -0.492,0.449 -0.203,0 -0.285,-0.043 -0.41,-0.164 -0.164,-0.164 -2.457,-9.453 -2.457,-9.578 0,-0.246 0.207,-0.41 0.453,-0.41 0.203,0 0.246,0.043 0.735,0.613 l 2.007,2.336 c 1.758,-2.375 4.543,-2.949 6.875,-2.949 5.567,0 10.395,5.402 10.395,10.48 0,2.781 -1.391,4.172 -2.004,4.746 -0.941,0.942 -1.555,1.106 -5.199,2.004 -0.899,0.246 -2.371,0.656 -2.742,0.738 -1.106,0.368 -2.496,1.555 -2.496,3.727 0,3.273 3.273,6.75 7.164,6.75 3.394,0 5.894,-1.758 5.894,-6.301 0,-1.308 -0.164,-2.047 -0.164,-2.293 0,-0.039 0,-0.41 0.488,-0.41 0.41,0 0.453,0.125 0.575,0.82 z" /><path
       inkscape:connector-curvature="0"
       id="path34"
       style="fill:#000000;fill-opacity:1;fill-rule:evenodd;stroke:none;stroke-width:0.1"
       d="m 270.652,247.155 -0.984,-0.734 -0.449,-0.371 -0.449,-0.406 -0.411,-0.41 -0.367,-0.411 -0.371,-0.449 -0.367,-0.41 -0.328,-0.449 -0.285,-0.453 -0.286,-0.45 -0.289,-0.449 -0.246,-0.492 -0.242,-0.449 -0.207,-0.492 -0.203,-0.45 -0.207,-0.492 -0.164,-0.488 -0.16,-0.453 -0.125,-0.488 -0.121,-0.454 -0.125,-0.488 -0.082,-0.453 -0.122,-0.488 -0.042,-0.453 -0.082,-0.45 -0.04,-0.449 -0.043,-0.449 -0.039,-0.453 -0.039,-0.406 v -0.864 c 0,-4.008 1.184,-10.23 6.875,-14.199 0.203,0 0.571,0 0.571,0.324 0,0.164 -0.078,0.246 -0.285,0.41 -3.805,3.438 -5.2,8.27 -5.2,13.426 0,7.696 2.95,11.461 5.282,13.59 0.125,0.082 0.203,0.164 0.203,0.324 0,0.328 -0.368,0.328 -0.571,0.328 z" /><path
       inkscape:connector-curvature="0"
       id="path36"
       style="fill:#000000;fill-opacity:1;fill-rule:evenodd;stroke:none;stroke-width:0.1"
       d="m 302.453,242.941 v 0.121 l 0.043,0.082 v 0.082 l 0.078,0.164 v 0.082 l 0.043,0.043 v 0.082 l 0.039,0.082 0.043,0.039 0.039,0.043 0.043,0.039 0.039,0.082 0.082,0.082 0.043,0.039 h 0.082 l 0.082,0.043 0.039,0.039 h 0.082 l 0.082,0.043 h 0.083 l 0.043,0.039 h 0.242 l 0.082,0.043 h 0.656 l 0.082,0.039 h 0.367 c 0.613,0 0.985,0 0.985,0.574 0,0.45 -0.329,0.45 -0.86,0.45 h -3.89 c -0.817,0 -0.86,-0.039 -1.227,-0.571 L 288.824,228.452 286,244.495 c -0.164,0.739 -0.164,0.778 -1.023,0.778 h -4.094 c -0.571,0 -0.942,0 -0.942,-0.653 0,-0.371 0.371,-0.371 0.985,-0.371 0.449,0 0.57,0 1.105,-0.082 0.531,-0.039 0.614,-0.121 0.614,-0.406 0,0 0,-0.164 -0.125,-0.617 l -3.602,-14.282 c -0.246,-0.984 -0.695,-1.925 -2.988,-2.007 -0.203,0 -0.571,-0.039 -0.571,-0.653 0,0 0,-0.371 0.411,-0.371 0.859,0 2.042,0.125 2.984,0.125 0.699,0 2.336,-0.125 3.031,-0.125 0.121,0 0.57,0 0.57,0.617 0,0.368 -0.367,0.407 -0.613,0.407 -1.84,0.043 -1.84,0.777 -1.84,1.187 0,0.125 0,0.246 0.121,0.695 l 3.809,15.145 3.066,-17.313 c 0.082,-0.492 0.164,-0.738 0.575,-0.738 0.41,0 0.656,0.289 0.82,0.617 l 12.031,17.719 h 0.043 l -4.055,-16.125 c -0.203,-0.98 -0.285,-1.187 -2.496,-1.187 -0.531,0 -0.859,0 -0.859,-0.653 0,0 0,-0.371 0.449,-0.371 0.535,0 1.188,0.082 1.762,0.082 0.574,0 1.227,0.043 1.801,0.043 0.82,0 2.824,-0.125 3.644,-0.125 0.16,0 0.614,0 0.614,0.617 0,0.407 -0.372,0.407 -0.942,0.407 0,0 -0.574,0 -1.066,0.043 -0.653,0.082 -0.653,0.164 -0.653,0.449 0,0.164 0.082,0.449 0.122,0.613 z" /><path
       inkscape:connector-curvature="0"
       id="path38"
       style="fill:#000000;fill-opacity:1;fill-rule:evenodd;stroke:none;stroke-width:0.1"
       d="m 309.941,247.155 h -0.285 l -0.039,-0.039 h -0.043 l -0.039,-0.043 h -0.043 v -0.039 h -0.039 v -0.082 h -0.043 v -0.125 c 0,-0.16 0.082,-0.242 0.246,-0.406 2.496,-2.254 5.239,-6.102 5.239,-13.469 0,-5.933 -1.883,-10.433 -4.954,-13.218 -0.488,-0.493 -0.531,-0.532 -0.531,-0.657 0,-0.16 0.082,-0.324 0.371,-0.324 0.324,0 3.067,1.84 4.949,5.402 1.27,2.371 2.09,5.442 2.09,8.758 0,4.051 -1.187,10.274 -6.879,14.242 z" /><path
       inkscape:connector-curvature="0"
       id="path40"
       style="fill:#000000;fill-opacity:1;fill-rule:evenodd;stroke:none;stroke-width:0.1"
       d="m 265.168,205.859 h 2.906 c 0.571,0 0.942,0 0.942,0.613 0,0.41 -0.371,0.41 -0.86,0.41 h -2.742 l 1.063,4.215 c 0.043,0.125 0.082,0.289 0.082,0.371 0,0.531 -0.368,0.941 -0.942,0.941 -0.738,0 -1.144,-0.492 -1.351,-1.23 -0.204,-0.735 0.164,0.656 -1.106,-4.297 h -2.906 c -0.531,0 -0.899,0 -0.899,-0.613 0,-0.41 0.329,-0.41 0.817,-0.41 h 2.742 l -1.676,-6.711 c -0.207,-0.739 -0.449,-1.762 -0.449,-2.129 0,-1.68 1.43,-2.703 3.066,-2.703 3.196,0 4.997,4.011 4.997,4.339 0,0.411 -0.372,0.411 -0.493,0.411 -0.328,0 -0.367,-0.082 -0.574,-0.575 -0.816,-1.757 -2.25,-3.355 -3.847,-3.355 -0.614,0 -0.981,0.367 -0.981,1.39 0,0.29 0.082,0.86 0.164,1.149 z" /><path
       inkscape:connector-curvature="0"
       id="path42"
       style="fill:none;stroke:#000000;stroke-width:0.80000001;stroke-linecap:butt;stroke-linejoin:miter;stroke-miterlimit:4;stroke-dasharray:none;stroke-opacity:1"
       d="m 322.32,222.242 c 0,-25.465 -20.644,-46.11 -46.109,-46.11 -25.465,0 -46.109,20.645 -46.109,46.11 0,25.468 20.644,46.113 46.109,46.113 25.465,0 46.109,-20.645 46.109,-46.113 z" /><path
       inkscape:connector-curvature="0"
       id="path44"
       style="fill:#000000;fill-opacity:1;fill-rule:evenodd;stroke:none;stroke-width:0.1"
       d="m 262.105,420.183 v 0.125 l -0.039,0.039 v 0.043 l -0.043,0.039 -0.039,0.043 h -0.043 v 0.039 h -0.039 l -0.043,0.043 h -0.203 c -0.207,0 -0.207,-0.043 -0.738,-0.574 l -1.922,-2.332 c -1.066,1.921 -3.191,2.906 -5.855,2.906 -5.196,0 -10.067,-4.668 -10.067,-9.578 0,-3.274 2.168,-5.157 4.215,-5.77 l 4.379,-1.148 c 1.516,-0.367 3.766,-0.981 3.766,-4.297 0,-3.645 -3.356,-7.488 -7.368,-7.488 -2.617,0 -7.121,0.898 -7.121,5.933 0,0.981 0.203,1.965 0.246,2.211 0.039,0.164 0.082,0.203 0.082,0.285 0,0.41 -0.285,0.449 -0.492,0.449 -0.203,0 -0.285,-0.039 -0.41,-0.164 -0.164,-0.164 -2.453,-9.453 -2.453,-9.578 0,-0.242 0.203,-0.406 0.449,-0.406 0.203,0 0.246,0.039 0.738,0.613 l 2.004,2.332 c 1.762,-2.375 4.543,-2.945 6.875,-2.945 5.567,0 10.399,5.402 10.399,10.477 0,2.785 -1.395,4.175 -2.008,4.746 -0.941,0.941 -1.555,1.105 -5.195,2.008 -0.903,0.246 -2.375,0.656 -2.742,0.734 -1.106,0.371 -2.5,1.558 -2.5,3.726 0,3.274 3.277,6.754 7.164,6.754 3.398,0 5.894,-1.761 5.894,-6.304 0,-1.309 -0.164,-2.047 -0.164,-2.293 0,-0.039 0,-0.407 0.492,-0.407 0.406,0 0.449,0.122 0.571,0.817 z" /><path
       inkscape:connector-curvature="0"
       id="path46"
       style="fill:#000000;fill-opacity:1;fill-rule:evenodd;stroke:none;stroke-width:0.1"
       d="m 273.32,434.429 -0.492,-0.371 -0.488,-0.367 -0.453,-0.368 -0.449,-0.41 -0.411,-0.41 -0.367,-0.41 -0.367,-0.449 -0.371,-0.41 -0.324,-0.45 -0.289,-0.449 -0.286,-0.449 -0.285,-0.453 -0.246,-0.489 -0.246,-0.453 -0.207,-0.488 -0.203,-0.453 -0.203,-0.488 -0.164,-0.493 -0.164,-0.449 -0.125,-0.492 -0.121,-0.449 -0.125,-0.492 -0.079,-0.45 -0.125,-0.492 -0.039,-0.449 -0.082,-0.453 -0.043,-0.449 -0.039,-0.45 -0.043,-0.449 -0.039,-0.41 v -0.859 c 0,-4.012 1.188,-10.235 6.875,-14.203 0.203,0 0.575,0 0.575,0.328 0,0.164 -0.083,0.246 -0.29,0.41 -3.804,3.437 -5.195,8.265 -5.195,13.422 0,7.695 2.945,11.461 5.278,13.59 0.124,0.082 0.207,0.164 0.207,0.328 0,0.328 -0.372,0.328 -0.575,0.328 z" /><path
       inkscape:connector-curvature="0"
       id="path48"
       style="fill:#000000;fill-opacity:1;fill-rule:evenodd;stroke:none;stroke-width:0.1"
       d="m 290.348,418.261 h -0.985 c -0.082,-0.613 -0.367,-2.293 -0.734,-2.578 -0.246,-0.164 -2.457,-0.164 -2.824,-0.164 h -5.282 c 3.028,2.617 4.012,3.437 5.731,4.789 2.129,1.676 4.094,3.437 4.094,6.136 0,3.442 -3.032,5.528 -6.715,5.528 -3.52,0 -5.934,-2.457 -5.934,-5.074 0,-1.434 1.227,-1.598 1.516,-1.598 0.695,0 1.515,0.492 1.515,1.516 0,0.492 -0.207,1.511 -1.679,1.511 0.859,2.008 2.824,2.621 4.176,2.621 2.863,0 4.335,-2.211 4.335,-4.504 0,-2.496 -1.757,-4.46 -2.699,-5.484 l -6.875,-6.75 c -0.289,-0.246 -0.289,-0.328 -0.289,-1.105 h 11.789 z" /><path
       inkscape:connector-curvature="0"
       id="path50"
       style="fill:#000000;fill-opacity:1;fill-rule:evenodd;stroke:none;stroke-width:0.1"
       d="m 294.727,434.429 h -0.329 v -0.043 h -0.082 v -0.039 h -0.039 l -0.043,-0.043 v -0.039 h -0.039 v -0.164 c 0,-0.164 0.082,-0.246 0.246,-0.41 2.454,-2.25 5.196,-6.098 5.196,-13.465 0,-5.934 -1.84,-10.438 -4.953,-13.219 -0.489,-0.492 -0.489,-0.535 -0.489,-0.656 0,-0.164 0.082,-0.328 0.367,-0.328 0.329,0 3.071,1.843 4.954,5.402 1.226,2.375 2.086,5.445 2.086,8.758 0,4.054 -1.227,10.273 -6.875,14.246 z" /><path
       inkscape:connector-curvature="0"
       id="path52"
       style="fill:#000000;fill-opacity:1;fill-rule:evenodd;stroke:none;stroke-width:0.1"
       d="m 267.836,393.132 h 2.906 c 0.574,0 0.942,0 0.942,0.613 0,0.406 -0.368,0.406 -0.86,0.406 h -2.742 l 1.063,4.219 c 0.043,0.121 0.082,0.285 0.082,0.367 0,0.532 -0.368,0.942 -0.942,0.942 -0.734,0 -1.144,-0.492 -1.351,-1.227 -0.204,-0.738 0.164,0.653 -1.102,-4.301 h -2.906 c -0.535,0 -0.903,0 -0.903,-0.613 0,-0.406 0.329,-0.406 0.821,-0.406 h 2.742 l -1.68,-6.715 c -0.203,-0.734 -0.449,-1.758 -0.449,-2.129 0,-1.676 1.434,-2.699 3.07,-2.699 3.192,0 4.993,4.012 4.993,4.336 0,0.41 -0.368,0.41 -0.493,0.41 -0.328,0 -0.367,-0.082 -0.57,-0.57 -0.82,-1.762 -2.254,-3.36 -3.848,-3.36 -0.613,0 -0.984,0.371 -0.984,1.395 0,0.285 0.082,0.859 0.164,1.144 z" /><path
       inkscape:connector-curvature="0"
       id="path54"
       style="fill:none;stroke:#000000;stroke-width:0.80000001;stroke-linecap:butt;stroke-linejoin:miter;stroke-miterlimit:4;stroke-dasharray:none;stroke-opacity:1"
       d="m 321.938,408.437 c 0,-25.465 -20.645,-46.109 -46.11,-46.109 -25.465,0 -46.109,20.644 -46.109,46.109 0,25.465 20.644,46.109 46.109,46.109 25.465,0 46.11,-20.644 46.11,-46.109 z" /><path
       inkscape:connector-curvature="0"
       id="path56"
       style="fill:#000000;fill-opacity:1;fill-rule:evenodd;stroke:none;stroke-width:0.1"
       d="m 272.648,54.2961 0.04,0.1211 0.042,0.125 v 0.1207 l 0.04,0.1641 0.042,0.164 0.083,0.1641 0.039,0.164 0.043,0.2039 0.082,0.1641 0.082,0.2027 0.082,0.2071 0.082,0.2031 0.082,0.207 0.078,0.2032 0.125,0.2027 0.121,0.207 0.125,0.2031 0.121,0.1641 0.125,0.2039 0.164,0.1641 0.121,0.207 0.164,0.1641 0.203,0.1636 0.164,0.1211 0.207,0.1211 0.161,0.125 0.125,0.0391 0.121,0.082 0.082,0.043 0.125,0.0391 0.121,0.0429 h 0.125 l 0.082,0.0391 0.121,0.043 h 0.285 l 0.125,0.0386 h 0.121 c 0.207,0 1.188,0 2.047,-0.5308 -1.144,-0.2032 -1.965,-1.227 -1.965,-2.211 0,-0.6519 0.449,-1.434 1.555,-1.434 0.902,0 2.211,0.7391 2.211,2.375 0,2.129 -2.414,2.7032 -3.805,2.7032 -2.375,0 -3.808,-2.1711 -4.297,-3.1133 -1.023,2.7031 -3.195,3.1133 -4.383,3.1133 -4.253,0 -6.589,-5.2813 -6.589,-6.2614 0,-0.4097 0.41,-0.4097 0.492,-0.4097 0.328,0 0.449,0.082 0.531,0.4488 1.395,4.2973 4.094,5.3199 5.484,5.3199 0.739,0 2.172,-0.3668 2.172,-2.7418 0,-1.2699 -0.656,-3.9691 -2.172,-9.6601 -0.652,-2.5348 -2.085,-4.2539 -3.886,-4.2539 -0.246,0 -1.188,0 -2.047,0.5308 1.023,0.2032 1.926,1.0633 1.926,2.2114 0,1.1058 -0.903,1.4296 -1.516,1.4296 -1.227,0 -2.25,-1.0628 -2.25,-2.3707 0,-1.8832 2.047,-2.6601 3.848,-2.6601 2.699,0 4.172,2.8242 4.297,3.066 0.449,-1.5121 1.921,-3.066 4.378,-3.066 4.215,0 6.547,5.2379 6.547,6.2609 0,0.4102 -0.367,0.4102 -0.488,0.4102 -0.371,0 -0.453,-0.2071 -0.535,-0.4531 -1.348,-4.379 -4.133,-5.359 -5.442,-5.359 -1.597,0 -2.25,1.3082 -2.25,2.6992 0,0.9019 0.243,1.8008 0.696,3.5629 z" /><path
       inkscape:connector-curvature="0"
       id="path58"
       style="fill:#000000;fill-opacity:1;fill-rule:evenodd;stroke:none;stroke-width:0.1"
       d="m 289.387,47.175 h 2.906 c 0.531,0 0.902,0 0.902,0.6129 0,0.4101 -0.371,0.4101 -0.859,0.4101 h -2.703 l 1.066,4.2149 c 0.039,0.1211 0.082,0.2851 0.082,0.4101 0,0.4891 -0.41,0.8989 -0.984,0.8989 -0.695,0 -1.145,-0.4918 -1.352,-1.227 -0.203,-0.7379 0.164,0.6531 -1.062,-4.2969 h -2.945 c -0.536,0 -0.903,0 -0.903,-0.6558 0,-0.3672 0.328,-0.3672 0.86,-0.3672 h 2.703 l -1.68,-6.7148 c -0.164,-0.734 -0.41,-1.7582 -0.41,-2.1293 0,-1.6758 1.433,-2.6989 3.031,-2.6989 3.191,0 4.992,3.9692 4.992,4.3399 0,0.4062 -0.367,0.4062 -0.449,0.4062 -0.371,0 -0.371,-0.082 -0.617,-0.5699 -0.777,-1.7621 -2.25,-3.3602 -3.844,-3.3602 -0.574,0 -0.984,0.3711 -0.984,1.395 0,0.2851 0.121,0.859 0.164,1.1441 z" /><path
       inkscape:connector-curvature="0"
       id="path60"
       style="fill:#000000;stroke:#000000;stroke-width:0.80000001;stroke-linecap:butt;stroke-linejoin:miter;stroke-miterlimit:4;stroke-dasharray:none;stroke-opacity:1;fill-opacity:0.27450982"
       d="m 322.652,48.2336 c 0,-25.4648 -20.644,-46.10977 -46.113,-46.10977 -25.465,0 -46.109,20.64497 -46.109,46.10977 0,25.4652 20.644,46.1094 46.109,46.1094 25.469,0 46.113,-20.6442 46.113,-46.1094 z" /><path
       inkscape:connector-curvature="0"
       id="path62"
       style="fill:none;stroke:#000000;stroke-width:2.31749988;stroke-linecap:butt;stroke-linejoin:miter;stroke-miterlimit:4;stroke-dasharray:none;stroke-opacity:1"
       d="M 277.812,176.027 V 100.21" /><path
       inkscape:connector-curvature="0"
       id="path64"
       style="fill:#000000;fill-opacity:1;fill-rule:evenodd;stroke:none;stroke-width:0.1"
       d="m 277.812,94.859 -4.636,8.019 h 9.269 z" /><path
       inkscape:connector-curvature="0"
       id="path66"
       style="fill:none;stroke:#000000;stroke-width:1.15874994;stroke-linecap:butt;stroke-linejoin:miter;stroke-miterlimit:4;stroke-dasharray:none;stroke-opacity:1"
       d="m 277.812,94.8586 -4.636,8.0194 h 9.269 z" /><path
       inkscape:connector-curvature="0"
       id="path68"
       style="fill:none;stroke:#000000;stroke-width:2.34817004;stroke-linecap:butt;stroke-linejoin:miter;stroke-miterlimit:4;stroke-dasharray:none;stroke-opacity:1"
       d="m 312.242,379.339 c 0,0 54.82,-151.699 -5.769,-290.6792" /><path
       inkscape:connector-curvature="0"
       id="path70"
       style="fill:#000000;fill-opacity:1;fill-rule:evenodd;stroke:none;stroke-width:0.1"
       d="m 304.309,83.691 -1.059,9.3238 8.609,-3.7539 z" /><path
       inkscape:connector-curvature="0"
       id="path72"
       style="fill:none;stroke:#000000;stroke-width:1.17408001;stroke-linecap:butt;stroke-linejoin:miter;stroke-miterlimit:4;stroke-dasharray:none;stroke-opacity:1"
       d="m 304.309,83.691 -1.059,9.3238 8.609,-3.7539 z" /><path
       inkscape:connector-curvature="0"
       id="path74"
       style="fill:none;stroke:#000000;stroke-width:2.4000001;stroke-linecap:butt;stroke-linejoin:miter;stroke-miterlimit:4;stroke-dasharray:none;stroke-opacity:1"
       d="m 310.535,500.288 c 0,0 101.145,-217.164 7.934,-433.3392" /><path
       inkscape:connector-curvature="0"
       id="path76"
       style="fill:#000000;fill-opacity:1;fill-rule:evenodd;stroke:none;stroke-width:0.1"
       d="m 316.273,61.8621 -1.117,9.5238 8.813,-3.8007 z" /><path
       inkscape:connector-curvature="0"
       id="path78"
       style="fill:none;stroke:#000000;stroke-width:1.20000005;stroke-linecap:butt;stroke-linejoin:miter;stroke-miterlimit:4;stroke-dasharray:none;stroke-opacity:1"
       d="m 316.273,61.8625 -1.117,9.5234 8.812,-3.8011 z" /><path
       inkscape:connector-curvature="0"
       id="path80"
       style="fill:none;stroke:#000000;stroke-width:2.4000001;stroke-linecap:butt;stroke-linejoin:miter;stroke-miterlimit:4;stroke-dasharray:none;stroke-opacity:1"
       d="m 322.434,217.675 h 61.48" /><path
       inkscape:connector-curvature="0"
       id="path82"
       style="fill:#000000;fill-opacity:1;fill-rule:evenodd;stroke:none;stroke-width:0.1"
       d="m 389.453,217.675 -8.305,-4.801 v 9.602 z" /><path
       inkscape:connector-curvature="0"
       id="path84"
       style="fill:none;stroke:#000000;stroke-width:1.20000005;stroke-linecap:butt;stroke-linejoin:miter;stroke-miterlimit:4;stroke-dasharray:none;stroke-opacity:1"
       d="m 389.453,217.675 -8.305,-4.801 v 9.602 z" /><path
       inkscape:connector-curvature="0"
       id="path86"
       style="fill:none;stroke:#000000;stroke-width:2.4000001;stroke-linecap:butt;stroke-linejoin:miter;stroke-miterlimit:4;stroke-dasharray:none;stroke-opacity:1"
       d="m 321.047,411.277 h 61.48" /><path
       inkscape:connector-curvature="0"
       id="path88"
       style="fill:#000000;fill-opacity:1;fill-rule:evenodd;stroke:none;stroke-width:0.1"
       d="m 388.066,411.276 -8.3,-4.8 v 9.597 z" /><path
       inkscape:connector-curvature="0"
       id="path90"
       style="fill:none;stroke:#000000;stroke-width:1.20000005;stroke-linecap:butt;stroke-linejoin:miter;stroke-miterlimit:4;stroke-dasharray:none;stroke-opacity:1"
       d="m 388.066,411.277 -8.3,-4.801 v 9.598 z" /><path
       inkscape:connector-curvature="0"
       id="path92"
       style="fill:none;stroke:#000000;stroke-width:2.4000001;stroke-linecap:butt;stroke-linejoin:miter;stroke-miterlimit:4;stroke-dasharray:none;stroke-opacity:1"
       d="m 320.055,535.843 h 61.484" /><path
       inkscape:connector-curvature="0"
       id="path94"
       style="fill:#000000;fill-opacity:1;fill-rule:evenodd;stroke:none;stroke-width:0.1"
       d="m 387.078,535.843 -8.305,-4.801 v 9.602 z" /><path
       inkscape:connector-curvature="0"
       id="path96"
       style="fill:none;stroke:#000000;stroke-width:1.20000005;stroke-linecap:butt;stroke-linejoin:miter;stroke-miterlimit:4;stroke-dasharray:none;stroke-opacity:1"
       d="m 387.078,535.843 -8.305,-4.801 v 9.602 z" /><path
       inkscape:connector-curvature="0"
       id="path98"
       style="fill:#000000;fill-opacity:1;fill-rule:evenodd;stroke:none;stroke-width:0.1"
       d="m 120.773,343.066 v 0.136 l -0.066,0.207 v 0.344 l -0.07,0.211 -0.071,0.137 -0.07,0.207 -0.066,0.136 -0.071,0.141 -0.07,0.207 -0.066,0.137 -0.071,0.137 -0.136,0.14 -0.071,0.137 -0.136,0.141 -0.141,0.136 -0.137,0.071 -0.136,0.136 -0.141,0.137 -0.137,0.07 -0.14,0.137 -0.274,0.141 -0.207,0.066 -0.141,0.07 -0.207,0.071 -0.136,0.066 h -0.207 l -0.141,0.07 h -0.551 c -2.004,0 -3.66,-1.656 -3.66,-3.589 0,-2.004 1.656,-3.665 3.66,-3.665 2.004,0 3.66,1.661 3.66,3.665 z" /><path
       inkscape:connector-curvature="0"
       id="path100"
       style="fill:#000000;fill-opacity:1;fill-rule:evenodd;stroke:none;stroke-width:0.1"
       d="m 120.773,315.503 v 0.207 l -0.066,0.141 v 0.414 l -0.07,0.136 -0.071,0.208 -0.07,0.136 -0.066,0.141 -0.071,0.207 -0.07,0.137 -0.066,0.14 -0.071,0.137 -0.136,0.137 -0.071,0.14 -0.136,0.137 -0.141,0.137 -0.137,0.14 -0.136,0.137 -0.141,0.07 -0.137,0.137 -0.14,0.07 -0.137,0.071 -0.137,0.066 -0.207,0.141 h -0.141 l -0.207,0.066 -0.136,0.07 -0.207,0.071 h -0.348 l -0.207,0.066 h -0.137 c -2.004,0 -3.66,-1.656 -3.66,-3.66 0,-2.004 1.656,-3.66 3.66,-3.66 2.004,0 3.66,1.656 3.66,3.66 z" /><path
       inkscape:connector-curvature="0"
       id="path102"
       style="fill:#000000;fill-opacity:1;fill-rule:evenodd;stroke:none;stroke-width:0.1"
       d="m 120.773,288.011 v 0.14 l -0.066,0.208 v 0.343 l -0.07,0.207 -0.071,0.141 -0.07,0.207 -0.066,0.137 -0.071,0.136 -0.07,0.207 -0.066,0.141 -0.071,0.137 -0.136,0.14 -0.071,0.137 -0.277,0.277 -0.137,0.067 -0.136,0.14 -0.141,0.137 -0.137,0.071 -0.14,0.136 -0.137,0.071 -0.137,0.066 -0.207,0.07 -0.141,0.071 -0.207,0.07 -0.136,0.066 h -0.207 l -0.141,0.071 h -0.551 c -2.004,0 -3.66,-1.661 -3.66,-3.594 0,-2 1.656,-3.66 3.66,-3.66 2.004,0 3.66,1.66 3.66,3.66 z" /><path
       inkscape:connector-curvature="0"
       id="path104"
       style="fill:#000000;fill-opacity:1;fill-rule:evenodd;stroke:none;stroke-width:0.1"
       d="m 101.996,544.819 v 0.125 l -0.043,0.043 v 0.039 l -0.039,0.043 -0.043,0.043 h -0.043 v 0.043 h -0.043 l -0.039,0.039 h -0.211 c -0.207,0 -0.207,-0.039 -0.754,-0.585 l -1.965,-2.383 c -1.089,1.965 -3.2648,2.968 -5.984,2.968 -5.316,0 -10.2929,-4.769 -10.2929,-9.789 0,-3.347 2.2148,-5.273 4.3089,-5.902 l 4.4758,-1.172 c 1.5512,-0.375 3.8524,-1.004 3.8524,-4.394 0,-3.723 -3.434,-7.657 -7.5313,-7.657 -2.6801,0 -7.282,0.922 -7.282,6.067 0,1.004 0.207,2.008 0.25,2.262 0.043,0.167 0.082,0.207 0.082,0.292 0,0.418 -0.2929,0.458 -0.5,0.458 -0.2109,0 -0.2929,-0.04 -0.4179,-0.165 -0.168,-0.168 -2.511,-9.668 -2.511,-9.793 0,-0.25 0.207,-0.417 0.461,-0.417 0.207,0 0.25,0.039 0.75,0.625 l 2.05,2.386 c 1.8011,-2.426 4.6449,-3.011 7.032,-3.011 5.691,0 10.6289,5.523 10.6289,10.71 0,2.848 -1.4219,4.27 -2.0508,4.856 -0.9609,0.961 -1.5902,1.129 -5.3133,2.051 -0.9218,0.25 -2.4289,0.668 -2.8039,0.754 -1.1289,0.375 -2.5551,1.589 -2.5551,3.804 0,3.352 3.3512,6.907 7.3243,6.907 3.473,0 6.0269,-1.801 6.0269,-6.446 0,-1.336 -0.168,-2.09 -0.168,-2.344 0,-0.039 0,-0.417 0.504,-0.417 0.4179,0 0.457,0.125 0.5859,0.839 z" /><path
       inkscape:connector-curvature="0"
       id="path106"
       style="fill:#000000;fill-opacity:1;fill-rule:evenodd;stroke:none;stroke-width:0.1"
       d="m 113.461,559.382 -0.5,-0.375 -0.504,-0.379 -0.461,-0.375 -0.457,-0.418 -0.422,-0.422 -0.375,-0.418 -0.375,-0.461 -0.379,-0.418 -0.336,-0.457 -0.879,-1.383 -0.25,-0.503 -0.25,-0.457 -0.211,-0.504 -0.207,-0.461 -0.21,-0.5 -0.168,-0.504 -0.165,-0.461 -0.128,-0.5 -0.125,-0.461 -0.125,-0.504 -0.082,-0.461 -0.125,-0.5 -0.043,-0.461 -0.086,-0.461 -0.039,-0.461 -0.043,-0.457 -0.043,-0.461 -0.039,-0.418 v -0.879 c 0,-4.101 1.211,-10.464 7.027,-14.523 0.211,0 0.586,0 0.586,0.336 0,0.168 -0.082,0.25 -0.293,0.418 -3.891,3.516 -5.313,8.453 -5.313,13.726 0,7.868 3.012,11.715 5.399,13.895 0.125,0.082 0.207,0.164 0.207,0.332 0,0.336 -0.375,0.336 -0.586,0.336 z" /><path
       inkscape:connector-curvature="0"
       id="path108"
       style="fill:#000000;fill-opacity:1;fill-rule:evenodd;stroke:none;stroke-width:0.1"
       d="m 125.891,556.077 v 0.418 l -0.043,0.039 v 0.129 l -0.039,0.039 v 0.043 h -0.043 v 0.043 h -0.043 v 0.039 h -0.125 v 0.043 h -0.586 c -1.883,-1.797 -4.52,-1.84 -5.735,-1.84 v -1.046 c 0.711,0 2.637,0 4.227,0.796 v -14.816 c 0,-0.961 0,-1.34 -2.93,-1.34 h -1.086 v -1.043 c 0.5,0 4.102,0.125 5.188,0.125 0.922,0 4.605,-0.125 5.273,-0.125 v 1.043 h -1.129 c -2.929,0 -2.929,0.379 -2.929,1.34 z" /><path
       inkscape:connector-curvature="0"
       id="path110"
       style="fill:#000000;fill-opacity:1;fill-rule:evenodd;stroke:none;stroke-width:0.1"
       d="m 135.348,559.382 h -0.336 v -0.043 H 134.93 V 559.3 h -0.043 l -0.039,-0.043 v -0.043 h -0.043 v -0.168 c 0,-0.168 0.082,-0.25 0.25,-0.418 2.511,-2.301 5.316,-6.234 5.316,-13.766 0,-6.07 -1.883,-10.671 -5.066,-13.519 -0.5,-0.5 -0.5,-0.543 -0.5,-0.668 0,-0.168 0.082,-0.336 0.375,-0.336 0.336,0 3.14,1.883 5.062,5.523 1.258,2.43 2.137,5.567 2.137,8.957 0,4.141 -1.258,10.504 -7.031,14.563 z" /><path
       inkscape:connector-curvature="0"
       id="path112"
       style="fill:#000000;fill-opacity:1;fill-rule:evenodd;stroke:none;stroke-width:0.1"
       d="m 107.855,516.28 h 2.969 c 0.586,0 0.965,0 0.965,0.668 0,0.379 -0.379,0.379 -0.879,0.379 h -2.805 l 1.09,4.309 c 0.039,0.168 0.082,0.293 0.082,0.418 0,0.543 -0.375,0.922 -0.961,0.922 -0.754,0 -1.171,-0.504 -1.382,-1.258 -0.207,-0.711 0.168,0.672 -1.129,-4.391 h -2.973 c -0.543,0 -0.918,0 -0.918,-0.629 0,-0.418 0.332,-0.418 0.836,-0.418 h 2.805 l -1.719,-6.863 c -0.207,-0.711 -0.457,-1.758 -0.457,-2.133 0,-1.718 1.461,-2.761 3.137,-2.761 3.265,0 5.105,4.058 5.105,4.433 0,0.379 -0.375,0.379 -0.504,0.379 -0.332,0 -0.375,-0.043 -0.586,-0.547 -0.836,-1.84 -2.301,-3.472 -3.933,-3.472 -0.625,0 -1.004,0.378 -1.004,1.421 0,0.293 0.086,0.922 0.168,1.215 z" /><path
       inkscape:connector-curvature="0"
       id="path114"
       style="fill:#000000;fill-opacity:1;fill-rule:evenodd;stroke:none;stroke-width:0.1"
       d="m 135.012,511.382 h 0.547 l 0.039,0.043 h 0.125 l 0.086,0.043 h 0.043 l 0.039,0.043 0.043,0.039 h 0.043 l 0.039,0.043 0.043,0.043 0.043,0.039 v 0.043 l 0.043,0.043 v 0.043 l 0.039,0.039 v 0.211 c 0,0.754 -0.668,0.754 -1.172,0.754 h -17.407 c -0.503,0 -1.171,0 -1.171,-0.711 0,-0.715 0.668,-0.715 1.171,-0.715 z" /><path
       inkscape:connector-curvature="0"
       id="path116"
       style="fill:#000000;fill-opacity:1;fill-rule:evenodd;stroke:none;stroke-width:0.1"
       d="m 149.117,523.312 v 0.418 h -0.043 v 0.168 h -0.043 v 0.082 h -0.043 v 0.043 h -0.039 l -0.043,0.039 h -0.082 l -0.043,0.043 h -0.543 c -1.883,-1.801 -4.519,-1.84 -5.734,-1.84 v -1.047 c 0.711,0 2.637,0 4.226,0.793 v -14.813 c 0,-0.961 0,-1.339 -2.929,-1.339 h -1.086 v -1.043 c 0.5,0 4.097,0.082 5.187,0.082 0.922,0 4.602,-0.082 5.231,-0.082 v 1.043 h -1.09 c -2.926,0 -2.926,0.378 -2.926,1.339 z" /><path
       inkscape:connector-curvature="0"
       id="path118"
       style="fill:none;stroke:#000000;stroke-width:0.80000001;stroke-linecap:butt;stroke-linejoin:miter;stroke-miterlimit:4;stroke-dasharray:none;stroke-opacity:1"
       d="m 162.25,530.222 c 0,-25.465 -20.645,-46.109 -46.109,-46.109 -25.4648,0 -46.1101,20.644 -46.1101,46.109 0,25.465 20.6453,46.109 46.1101,46.109 25.464,0 46.109,-20.644 46.109,-46.109 z" /><path
       inkscape:connector-curvature="0"
       id="path120"
       style="fill:#000000;fill-opacity:1;fill-rule:evenodd;stroke:none;stroke-width:0.1"
       d="m 96.8398,233.874 v 0.125 l -0.0429,0.043 v 0.043 l -0.043,0.043 -0.043,0.039 h -0.039 v 0.043 h -0.043 l -0.043,0.043 h -0.207 c -0.2109,0 -0.2109,-0.043 -0.7539,-0.586 l -1.9691,-2.387 c -1.086,1.969 -3.261,2.973 -5.9797,2.973 -5.3172,0 -10.2973,-4.773 -10.2973,-9.793 0,-3.348 2.2191,-5.273 4.3121,-5.902 l 4.477,-1.172 c 1.5468,-0.375 3.848,-1.004 3.848,-4.391 0,-3.726 -3.4301,-7.66 -7.532,-7.66 -2.675,0 -7.2809,0.922 -7.2809,6.066 0,1.008 0.211,2.012 0.25,2.262 0.043,0.168 0.086,0.211 0.086,0.293 0,0.418 -0.293,0.461 -0.5039,0.461 -0.2071,0 -0.293,-0.043 -0.418,-0.168 -0.1684,-0.168 -2.5121,-9.668 -2.5121,-9.793 0,-0.25 0.2109,-0.418 0.4609,-0.418 0.211,0 0.25,0.043 0.7539,0.629 l 2.0512,2.383 c 1.8008,-2.426 4.6449,-3.012 7.0309,-3.012 5.6921,0 10.6289,5.524 10.6289,10.715 0,2.844 -1.4219,4.266 -2.0508,4.852 -0.9641,0.964 -1.5891,1.129 -5.316,2.05 -0.918,0.25 -2.4262,0.672 -2.8012,0.754 -1.1328,0.375 -2.5539,1.59 -2.5539,3.809 0,3.348 3.3469,6.902 7.3242,6.902 3.4719,0 6.0227,-1.797 6.0227,-6.441 0,-1.34 -0.1637,-2.094 -0.1637,-2.344 0,-0.043 0,-0.418 0.5,-0.418 0.418,0 0.4609,0.125 0.5859,0.836 z" /><path
       inkscape:connector-curvature="0"
       id="path122"
       style="fill:#000000;fill-opacity:1;fill-rule:evenodd;stroke:none;stroke-width:0.1"
       d="m 108.305,248.437 -0.504,-0.375 -0.5,-0.379 -0.461,-0.375 -0.461,-0.418 -0.418,-0.418 -0.375,-0.418 -0.379,-0.461 -0.375,-0.418 -0.336,-0.461 -0.879,-1.383 -0.25,-0.5 -0.25,-0.461 -0.211,-0.504 -0.211,-0.457 -0.207,-0.504 -0.168,-0.504 -0.168,-0.457 -0.125,-0.503 -0.125,-0.461 -0.125,-0.5 -0.086,-0.461 -0.125,-0.504 -0.043,-0.461 -0.082,-0.457 -0.043,-0.461 -0.039,-0.461 -0.043,-0.461 -0.043,-0.418 v -0.879 c 0,-4.101 1.215,-10.461 7.032,-14.519 0.207,0 0.586,0 0.586,0.332 0,0.168 -0.086,0.254 -0.293,0.418 -3.891,3.515 -5.317,8.453 -5.317,13.726 0,7.867 3.016,11.719 5.399,13.895 0.125,0.082 0.211,0.168 0.211,0.336 0,0.332 -0.379,0.332 -0.586,0.332 z" /><path
       inkscape:connector-curvature="0"
       id="path124"
       style="fill:#000000;fill-opacity:1;fill-rule:evenodd;stroke:none;stroke-width:0.1"
       d="m 140.82,244.128 v 0.125 l 0.039,0.082 v 0.086 l 0.043,0.082 0.043,0.086 v 0.082 l 0.043,0.043 v 0.082 l 0.039,0.086 0.043,0.039 0.043,0.043 0.039,0.043 0.043,0.082 0.125,0.125 h 0.086 l 0.082,0.043 0.043,0.043 h 0.082 l 0.086,0.043 h 0.082 l 0.043,0.039 h 0.25 l 0.086,0.043 h 0.668 l 0.082,0.043 h 0.379 c 0.625,0 1.004,0 1.004,0.586 0,0.457 -0.336,0.457 -0.879,0.457 h -3.976 c -0.836,0 -0.879,-0.039 -1.254,-0.582 l -11.301,-16.613 -2.887,16.402 c -0.168,0.754 -0.168,0.793 -1.047,0.793 h -4.183 c -0.586,0 -0.961,0 -0.961,-0.668 0,-0.375 0.375,-0.375 1.004,-0.375 0.461,0 0.586,0 1.129,-0.086 0.542,-0.039 0.628,-0.125 0.628,-0.418 0,0 0,-0.168 -0.125,-0.629 l -3.683,-14.601 c -0.25,-1.004 -0.711,-1.969 -3.055,-2.051 -0.211,0 -0.586,-0.043 -0.586,-0.672 0,0 0,-0.375 0.418,-0.375 0.879,0 2.094,0.125 3.055,0.125 0.711,0 2.387,-0.125 3.098,-0.125 0.124,0 0.585,0 0.585,0.629 0,0.375 -0.378,0.418 -0.628,0.418 -1.883,0.039 -1.883,0.793 -1.883,1.211 0,0.129 0,0.254 0.125,0.715 l 3.89,15.48 3.141,-17.699 c 0.082,-0.504 0.168,-0.754 0.586,-0.754 0.418,0 0.668,0.293 0.836,0.629 l 12.305,18.117 h 0.039 l -4.141,-16.488 c -0.211,-1.004 -0.293,-1.211 -2.555,-1.211 -0.543,0 -0.879,0 -0.879,-0.672 0,0 0,-0.375 0.461,-0.375 0.543,0 1.215,0.082 1.801,0.082 0.586,0 1.254,0.043 1.84,0.043 0.836,0 2.887,-0.125 3.727,-0.125 0.164,0 0.624,0 0.624,0.629 0,0.418 -0.374,0.418 -0.96,0.418 0,0 -0.586,0 -1.09,0.039 -0.668,0.086 -0.668,0.168 -0.668,0.461 0,0.168 0.082,0.461 0.125,0.629 z" /><path
       inkscape:connector-curvature="0"
       id="path126"
       style="fill:#000000;fill-opacity:1;fill-rule:evenodd;stroke:none;stroke-width:0.1"
       d="m 148.477,248.437 h -0.293 l -0.043,-0.039 h -0.039 l -0.043,-0.043 h -0.043 v -0.043 h -0.039 v -0.082 h -0.043 v -0.125 c 0,-0.168 0.082,-0.254 0.25,-0.422 2.554,-2.301 5.355,-6.235 5.355,-13.766 0,-6.066 -1.922,-10.672 -5.062,-13.516 -0.5,-0.503 -0.543,-0.546 -0.543,-0.671 0,-0.168 0.082,-0.332 0.375,-0.332 0.336,0 3.14,1.882 5.066,5.523 1.297,2.426 2.133,5.566 2.133,8.953 0,4.145 -1.215,10.504 -7.031,14.563 z" /><path
       inkscape:connector-curvature="0"
       id="path128"
       style="fill:#000000;fill-opacity:1;fill-rule:evenodd;stroke:none;stroke-width:0.1"
       d="m 102.695,205.335 h 2.973 c 0.586,0 0.961,0 0.961,0.672 0,0.375 -0.375,0.375 -0.879,0.375 h -2.801 l 1.086,4.309 c 0.043,0.168 0.086,0.293 0.086,0.421 0,0.543 -0.379,0.918 -0.965,0.918 -0.754,0 -1.172,-0.5 -1.379,-1.254 -0.211,-0.71 0.168,0.668 -1.132,-4.394 h -2.9688 c -0.543,0 -0.9223,0 -0.9223,-0.629 0,-0.418 0.3359,-0.418 0.8359,-0.418 h 2.8052 l -1.7149,-6.863 c -0.211,-0.711 -0.461,-1.758 -0.461,-2.133 0,-1.715 1.4649,-2.762 3.1399,-2.762 3.262,0 5.106,4.059 5.106,4.434 0,0.379 -0.379,0.379 -0.504,0.379 -0.336,0 -0.375,-0.043 -0.586,-0.543 -0.836,-1.844 -2.301,-3.477 -3.934,-3.477 -0.629,0 -1.003,0.379 -1.003,1.426 0,0.293 0.082,0.918 0.167,1.211 z" /><path
       inkscape:connector-curvature="0"
       id="path130"
       style="fill:#000000;fill-opacity:1;fill-rule:evenodd;stroke:none;stroke-width:0.1"
       d="m 129.855,200.441 h 0.543 l 0.043,0.039 h 0.125 l 0.086,0.043 h 0.039 l 0.086,0.086 h 0.039 l 0.043,0.039 0.043,0.043 0.039,0.043 v 0.039 l 0.043,0.043 v 0.043 l 0.043,0.042 v 0.208 c 0,0.753 -0.668,0.753 -1.172,0.753 h -17.41 c -0.5,0 -1.168,0 -1.168,-0.711 0,-0.71 0.668,-0.71 1.168,-0.71 z" /><path
       inkscape:connector-curvature="0"
       id="path132"
       style="fill:#000000;fill-opacity:1;fill-rule:evenodd;stroke:none;stroke-width:0.1"
       d="m 143.957,212.366 v 0.418 h -0.043 v 0.168 h -0.039 v 0.082 h -0.043 v 0.043 h -0.043 l -0.039,0.043 h -0.086 l -0.043,0.039 h -0.543 c -1.883,-1.797 -4.519,-1.84 -5.73,-1.84 v -1.046 c 0.711,0 2.632,0 4.226,0.796 v -14.816 c 0,-0.961 0,-1.336 -2.929,-1.336 h -1.09 v -1.047 c 0.504,0 4.101,0.082 5.187,0.082 0.922,0 4.606,-0.082 5.235,-0.082 v 1.047 h -1.09 c -2.93,0 -2.93,0.375 -2.93,1.336 z" /><path
       inkscape:connector-curvature="0"
       id="path134"
       style="fill:none;stroke:#000000;stroke-width:0.80000001;stroke-linecap:butt;stroke-linejoin:miter;stroke-miterlimit:4;stroke-dasharray:none;stroke-opacity:1"
       d="m 162.141,221.933 c 0,-25.469 -20.645,-46.113 -46.114,-46.113 -25.4649,0 -46.109,20.644 -46.109,46.113 0,25.465 20.6441,46.109 46.109,46.109 25.469,0 46.114,-20.644 46.114,-46.109 z" /><path
       inkscape:connector-curvature="0"
       id="path136"
       style="fill:#000000;fill-opacity:1;fill-rule:evenodd;stroke:none;stroke-width:0.1"
       d="m 100.75,421.855 v 0.125 l -0.043,0.039 v 0.043 l -0.039,0.043 -0.043,0.043 h -0.043 v 0.039 h -0.039 l -0.043,0.043 h -0.211 c -0.207,0 -0.207,-0.043 -0.7538,-0.586 l -1.9653,-2.387 c -1.0898,1.969 -3.2648,2.973 -5.984,2.973 -5.316,0 -10.2929,-4.77 -10.2929,-9.793 0,-3.348 2.2152,-5.274 4.309,-5.899 l 4.4761,-1.172 c 1.5508,-0.379 3.852,-1.004 3.852,-4.394 0,-3.723 -3.434,-7.656 -7.5321,-7.656 -2.6789,0 -7.2808,0.918 -7.2808,6.066 0,1.004 0.2066,2.008 0.25,2.258 0.043,0.168 0.0816,0.211 0.0816,0.293 0,0.418 -0.2929,0.461 -0.5,0.461 -0.2109,0 -0.2929,-0.043 -0.4179,-0.168 -0.168,-0.168 -2.511,-9.664 -2.511,-9.789 0,-0.254 0.2071,-0.422 0.4602,-0.422 0.2078,0 0.25,0.043 0.7539,0.629 l 2.0469,2.386 c 1.8011,-2.429 4.6492,-3.015 7.0312,-3.015 5.6918,0 10.6289,5.523 10.6289,10.715 0,2.843 -1.4211,4.269 -2.05,4.855 -0.9609,0.961 -1.5898,1.129 -5.3129,2.047 -0.9222,0.254 -2.4301,0.672 -2.8051,0.754 -1.1281,0.379 -2.55,1.59 -2.55,3.808 0,3.348 3.3469,6.907 7.32,6.907 3.473,0 6.0269,-1.801 6.0269,-6.446 0,-1.339 -0.1679,-2.093 -0.1679,-2.343 0,-0.043 0,-0.418 0.5039,-0.418 0.4179,0 0.457,0.125 0.5863,0.836 z" /><path
       inkscape:connector-curvature="0"
       id="path138"
       style="fill:#000000;fill-opacity:1;fill-rule:evenodd;stroke:none;stroke-width:0.1"
       d="m 112.215,436.417 -0.5,-0.379 -0.504,-0.375 -0.461,-0.379 -0.457,-0.418 -0.422,-0.418 -0.375,-0.418 -0.375,-0.461 -0.379,-0.418 -0.332,-0.46 -0.293,-0.461 -0.293,-0.457 -0.293,-0.461 -0.254,-0.504 -0.25,-0.461 -0.211,-0.5 -0.207,-0.461 -0.211,-0.504 -0.168,-0.5 -0.164,-0.461 -0.128,-0.504 -0.126,-0.457 -0.124,-0.504 -0.083,-0.461 -0.125,-0.5 -0.042,-0.461 -0.086,-0.461 -0.04,-0.461 -0.085,-0.921 -0.039,-0.418 v -0.879 c 0,-4.102 1.21,-10.461 7.027,-14.52 0.211,0 0.586,0 0.586,0.336 0,0.168 -0.082,0.25 -0.293,0.418 -3.891,3.516 -5.313,8.453 -5.313,13.727 0,7.867 3.012,11.714 5.399,13.89 0.125,0.086 0.207,0.168 0.207,0.336 0,0.336 -0.375,0.336 -0.586,0.336 z" /><path
       inkscape:connector-curvature="0"
       id="path140"
       style="fill:#000000;fill-opacity:1;fill-rule:evenodd;stroke:none;stroke-width:0.1"
       d="m 129.625,419.886 h -1.004 c -0.086,-0.629 -0.379,-2.344 -0.754,-2.637 -0.25,-0.168 -2.512,-0.168 -2.887,-0.168 h -5.398 c 3.098,2.68 4.102,3.516 5.859,4.899 2.176,1.714 4.184,3.515 4.184,6.277 0,3.516 -3.098,5.648 -6.863,5.648 -3.598,0 -6.067,-2.511 -6.067,-5.191 0,-1.461 1.254,-1.629 1.547,-1.629 0.711,0 1.547,0.5 1.547,1.547 0,0.504 -0.207,1.547 -1.715,1.547 0.879,2.051 2.887,2.68 4.27,2.68 2.929,0 4.433,-2.258 4.433,-4.602 0,-2.555 -1.797,-4.563 -2.761,-5.609 l -7.028,-6.903 c -0.293,-0.254 -0.293,-0.336 -0.293,-1.133 h 12.051 z" /><path
       inkscape:connector-curvature="0"
       id="path142"
       style="fill:#000000;fill-opacity:1;fill-rule:evenodd;stroke:none;stroke-width:0.1"
       d="m 134.102,436.417 h -0.336 v -0.043 h -0.082 v -0.043 h -0.043 l -0.039,-0.043 v -0.039 h -0.043 v -0.168 c 0,-0.168 0.082,-0.25 0.25,-0.418 2.511,-2.301 5.316,-6.234 5.316,-13.769 0,-6.067 -1.883,-10.668 -5.066,-13.516 -0.5,-0.5 -0.5,-0.543 -0.5,-0.668 0,-0.168 0.082,-0.336 0.375,-0.336 0.336,0 3.14,1.883 5.066,5.524 1.254,2.425 2.133,5.566 2.133,8.957 0,4.14 -1.258,10.5 -7.031,14.562 z" /><path
       inkscape:connector-curvature="0"
       id="path144"
       style="fill:#000000;fill-opacity:1;fill-rule:evenodd;stroke:none;stroke-width:0.1"
       d="m 106.609,393.316 h 2.969 c 0.586,0 0.965,0 0.965,0.668 0,0.375 -0.379,0.375 -0.879,0.375 h -2.805 l 1.09,4.312 c 0.039,0.168 0.082,0.293 0.082,0.418 0,0.543 -0.375,0.922 -0.961,0.922 -0.754,0 -1.172,-0.504 -1.382,-1.258 -0.208,-0.711 0.167,0.672 -1.129,-4.394 h -2.973 c -0.543,0 -0.918,0 -0.918,-0.625 0,-0.418 0.332,-0.418 0.836,-0.418 h 2.805 l -1.719,-6.864 c -0.207,-0.711 -0.457,-1.758 -0.457,-2.136 0,-1.715 1.465,-2.762 3.137,-2.762 3.265,0 5.105,4.058 5.105,4.437 0,0.375 -0.375,0.375 -0.504,0.375 -0.332,0 -0.375,-0.043 -0.586,-0.543 -0.836,-1.839 -2.301,-3.472 -3.933,-3.472 -0.625,0 -1.004,0.375 -1.004,1.422 0,0.293 0.086,0.921 0.168,1.214 z" /><path
       inkscape:connector-curvature="0"
       id="path146"
       style="fill:#000000;fill-opacity:1;fill-rule:evenodd;stroke:none;stroke-width:0.1"
       d="m 133.766,388.417 h 0.546 l 0.04,0.043 h 0.128 l 0.082,0.043 h 0.043 l 0.083,0.082 h 0.042 l 0.125,0.125 v 0.043 l 0.043,0.043 v 0.039 l 0.04,0.043 v 0.211 c 0,0.75 -0.668,0.75 -1.172,0.75 h -17.407 c -0.504,0 -1.171,0 -1.171,-0.711 0,-0.711 0.667,-0.711 1.171,-0.711 z" /><path
       inkscape:connector-curvature="0"
       id="path148"
       style="fill:#000000;fill-opacity:1;fill-rule:evenodd;stroke:none;stroke-width:0.1"
       d="m 147.871,400.343 v 0.418 h -0.043 v 0.168 h -0.043 v 0.086 h -0.043 v 0.039 h -0.039 l -0.043,0.043 h -0.082 l -0.043,0.043 h -0.543 c -1.883,-1.801 -4.519,-1.844 -5.734,-1.844 v -1.043 c 0.711,0 2.637,0 4.226,0.793 v -14.812 c 0,-0.965 0,-1.34 -2.929,-1.34 h -1.086 v -1.047 c 0.5,0 4.097,0.086 5.187,0.086 0.922,0 4.602,-0.086 5.231,-0.086 v 1.047 h -1.086 c -2.93,0 -2.93,0.375 -2.93,1.34 z" /><path
       inkscape:connector-curvature="0"
       id="path150"
       style="fill:none;stroke:#000000;stroke-width:0.80000001;stroke-linecap:butt;stroke-linejoin:miter;stroke-miterlimit:4;stroke-dasharray:none;stroke-opacity:1"
       d="m 161.758,408.128 c 0,-25.468 -20.645,-46.113 -46.113,-46.113 -25.4649,0 -46.1098,20.645 -46.1098,46.113 0,25.465 20.6449,46.11 46.1098,46.11 25.468,0 46.113,-20.645 46.113,-46.11 z" /><path
       inkscape:connector-curvature="0"
       id="path152"
       style="fill:#000000;fill-opacity:1;fill-rule:evenodd;stroke:none;stroke-width:0.1"
       d="m 90.773,54.8699 0.0391,0.125 0.043,0.125 v 0.125 l 0.0429,0.168 0.0399,0.168 0.0851,0.1679 0.043,0.1684 0.0391,0.2066 0.0859,0.1684 0.082,0.2109 0.086,0.2071 0.082,0.2109 0.082,0.207 0.086,0.211 0.125,0.207 0.125,0.2109 0.125,0.2071 0.125,0.1679 0.1289,0.211 0.1641,0.1679 0.1289,0.2071 0.164,0.1679 0.211,0.168 0.1679,0.125 0.2071,0.125 0.1679,0.125 0.125,0.043 0.125,0.0863 0.0864,0.0387 0.25,0.0863 h 0.125 l 0.0859,0.0387 0.125,0.0429 h 0.293 l 0.125,0.0434 h 0.125 c 0.2109,0 1.2148,0 2.0941,-0.5434 C 95.8359,59.0539 95,58.007 95,57.0031 c 0,-0.6679 0.457,-1.4652 1.5898,-1.4652 0.9184,0 2.2582,0.7543 2.2582,2.4262 0,2.18 -2.4691,2.766 -3.891,2.766 -2.4261,0 -3.891,-2.2192 -4.3949,-3.184 -1.0461,2.7621 -3.2652,3.184 -4.4762,3.184 -4.3519,0 -6.7379,-5.3992 -6.7379,-6.4071 0,-0.4179 0.418,-0.4179 0.504,-0.4179 0.332,0 0.457,0.0859 0.5429,0.4609 1.4211,4.3949 4.1832,5.4422 5.6051,5.4422 0.7539,0 2.2191,-0.3793 2.2191,-2.8051 0,-1.2972 -0.6679,-4.059 -2.2191,-9.875 -0.668,-2.5941 -2.1328,-4.3519 -3.973,-4.3519 -0.254,0 -1.2149,0 -2.093,0.5429 1.0461,0.211 1.964,1.0899 1.964,2.2618 0,1.1293 -0.9179,1.4613 -1.546,1.4613 -1.254,0 -2.3008,-1.0863 -2.3008,-2.4262 0,-1.925 2.0937,-2.718 3.9328,-2.718 2.7621,0 4.2699,2.886 4.3949,3.136 0.4609,-1.5469 1.9652,-3.136 4.4762,-3.136 4.309,0 6.6961,5.3551 6.6961,6.402 0,0.418 -0.375,0.418 -0.5043,0.418 -0.375,0 -0.4571,-0.211 -0.543,-0.461 -1.3789,-4.4769 -4.2269,-5.4808 -5.566,-5.4808 -1.6289,0 -2.3008,1.3398 -2.3008,2.7617 0,0.918 0.2539,1.8402 0.7109,3.641 z" /><path
       inkscape:connector-curvature="0"
       id="path154"
       style="fill:#000000;fill-opacity:1;fill-rule:evenodd;stroke:none;stroke-width:0.1"
       d="m 107.887,47.5891 h 2.972 c 0.543,0 0.918,0 0.918,0.625 0,0.4218 -0.375,0.4218 -0.879,0.4218 h -2.761 l 1.09,4.3082 c 0.043,0.125 0.082,0.293 0.082,0.418 0,0.5039 -0.418,0.9219 -1.004,0.9219 -0.711,0 -1.172,-0.5039 -1.379,-1.2578 -0.211,-0.75 0.168,0.6718 -1.09,-4.3903 h -3.012 c -0.543,0 -0.922,0 -0.922,-0.6718 0,-0.375 0.336,-0.375 0.879,-0.375 h 2.762 l -1.715,-6.8629 C 103.66,39.9719 103.41,38.925 103.41,38.55 c 0,-1.7148 1.465,-2.7621 3.098,-2.7621 3.262,0 5.105,4.059 5.105,4.434 0,0.4179 -0.379,0.4179 -0.461,0.4179 -0.379,0 -0.379,-0.0816 -0.629,-0.5859 -0.796,-1.7969 -2.3,-3.4301 -3.933,-3.4301 -0.586,0 -1.004,0.375 -1.004,1.4223 0,0.293 0.125,0.8789 0.168,1.1719 z" /><path
       inkscape:connector-curvature="0"
       id="path156"
       style="fill:#000000;fill-opacity:1;fill-rule:evenodd;stroke:none;stroke-width:0.1"
       d="m 135.047,42.6512 h 0.375 l 0.043,0.0398 h 0.207 l 0.043,0.043 h 0.082 l 0.043,0.0422 h 0.043 l 0.043,0.0398 h 0.039 l 0.086,0.0852 0.039,0.0429 v 0.0399 h 0.043 v 0.0851 h 0.043 v 0.125 h 0.043 v 0.168 c 0,0.7109 -0.672,0.7109 -1.172,0.7109 h -17.453 c -0.457,0 -1.172,0 -1.172,-0.6718 0,-0.75 0.672,-0.75 1.172,-0.75 z" /><path
       inkscape:connector-curvature="0"
       id="path158"
       style="fill:#000000;fill-opacity:1;fill-rule:evenodd;stroke:none;stroke-width:0.1"
       d="m 149.105,54.577 v 0.5 l -0.043,0.0429 v 0.0821 l -0.039,0.0429 v 0.043 h -0.043 v 0.043 h -0.082 v 0.039 h -0.21 v 0.043 h -0.461 c -1.84,-1.8399 -4.52,-1.8828 -5.731,-1.8828 V 52.484 c 0.711,0 2.633,0 4.266,0.8351 v -14.855 c 0,-0.961 0,-1.336 -2.93,-1.336 h -1.129 v -1.0472 c 0.543,0.039 4.145,0.125 5.231,0.125 0.878,0 4.562,-0.086 5.23,-0.125 v 1.0472 h -1.129 c -2.93,0 -2.93,0.375 -2.93,1.336 z" /><path
       inkscape:connector-curvature="0"
       id="path160"
       style="fill:#000000;stroke:#000000;stroke-width:0.80000001;stroke-linecap:butt;stroke-linejoin:miter;stroke-miterlimit:4;stroke-dasharray:none;stroke-opacity:1;fill-opacity:0.27450982"
       d="m 162.469,47.9207 c 0,-25.4648 -20.645,-46.10898 -46.11,-46.10898 -25.468,0 -46.1129,20.64418 -46.1129,46.10898 0,25.4691 20.6449,46.1141 46.1129,46.1141 25.465,0 46.11,-20.645 46.11,-46.1141 z" /><path
       inkscape:connector-curvature="0"
       id="path162"
       style="fill:none;stroke:#000000;stroke-width:2.31749988;stroke-linecap:butt;stroke-linejoin:miter;stroke-miterlimit:4;stroke-dasharray:none;stroke-opacity:1"
       d="M 117.629,175.718 V 99.8977" /><path
       inkscape:connector-curvature="0"
       id="path164"
       style="fill:#000000;fill-opacity:1;fill-rule:evenodd;stroke:none;stroke-width:0.1"
       d="m 117.629,94.55 -4.637,8.016 h 9.274 z" /><path
       inkscape:connector-curvature="0"
       id="path166"
       style="fill:none;stroke:#000000;stroke-width:1.15874994;stroke-linecap:butt;stroke-linejoin:miter;stroke-miterlimit:4;stroke-dasharray:none;stroke-opacity:1"
       d="m 117.629,94.5496 -4.637,8.0164 h 9.274 z" /><path
       inkscape:connector-curvature="0"
       id="path168"
       style="fill:none;stroke:#000000;stroke-width:2.34817004;stroke-linecap:butt;stroke-linejoin:miter;stroke-miterlimit:4;stroke-dasharray:none;stroke-opacity:1"
       d="m 152.062,379.031 c 0,0 54.821,-151.703 -5.769,-290.6841" /><path
       inkscape:connector-curvature="0"
       id="path170"
       style="fill:#000000;fill-opacity:1;fill-rule:evenodd;stroke:none;stroke-width:0.1"
       d="m 144.125,83.3781 -1.059,9.3278 8.61,-3.7539 z" /><path
       inkscape:connector-curvature="0"
       id="path172"
       style="fill:none;stroke:#000000;stroke-width:1.17408001;stroke-linecap:butt;stroke-linejoin:miter;stroke-miterlimit:4;stroke-dasharray:none;stroke-opacity:1"
       d="m 144.125,83.3781 -1.059,9.3285 8.61,-3.7546 z" /><path
       inkscape:connector-curvature="0"
       id="path174"
       style="fill:none;stroke:#000000;stroke-width:2.4000001;stroke-linecap:butt;stroke-linejoin:miter;stroke-miterlimit:4;stroke-dasharray:none;stroke-opacity:1"
       d="m 150.352,499.976 c 0,0 101.148,-217.164 7.933,-433.3401" /><path
       inkscape:connector-curvature="0"
       id="path176"
       style="fill:#000000;fill-opacity:1;fill-rule:evenodd;stroke:none;stroke-width:0.1"
       d="m 156.094,61.55 -1.121,9.527 8.816,-3.8008 z" /><path
       inkscape:connector-curvature="0"
       id="path178"
       style="fill:none;stroke:#000000;stroke-width:1.20000005;stroke-linecap:butt;stroke-linejoin:miter;stroke-miterlimit:4;stroke-dasharray:none;stroke-opacity:1"
       d="m 156.093,61.55 -1.121,9.527 8.817,-3.8004 z" /><path
       inkscape:connector-curvature="0"
       id="path180"
       style="fill:none;stroke:#000000;stroke-width:2.4000001;stroke-linecap:butt;stroke-linejoin:miter;stroke-miterlimit:4;stroke-dasharray:none;stroke-opacity:1"
       d="m 162.25,217.363 h 61.484" /><path
       inkscape:connector-curvature="0"
       id="path182"
       style="fill:#000000;fill-opacity:1;fill-rule:evenodd;stroke:none;stroke-width:0.1"
       d="m 229.273,217.362 -8.304,-4.796 v 9.597 z" /><path
       inkscape:connector-curvature="0"
       id="path184"
       style="fill:none;stroke:#000000;stroke-width:1.20000005;stroke-linecap:butt;stroke-linejoin:miter;stroke-miterlimit:4;stroke-dasharray:none;stroke-opacity:1"
       d="m 229.273,217.363 -8.304,-4.797 v 9.597 z" /><path
       inkscape:connector-curvature="0"
       id="path186"
       style="fill:none;stroke:#000000;stroke-width:2.4000001;stroke-linecap:butt;stroke-linejoin:miter;stroke-miterlimit:4;stroke-dasharray:none;stroke-opacity:1"
       d="m 160.867,410.964 h 61.481" /><path
       inkscape:connector-curvature="0"
       id="path188"
       style="fill:#000000;fill-opacity:1;fill-rule:evenodd;stroke:none;stroke-width:0.1"
       d="m 227.887,410.964 -8.305,-4.801 v 9.602 z" /><path
       inkscape:connector-curvature="0"
       id="path190"
       style="fill:none;stroke:#000000;stroke-width:1.20000005;stroke-linecap:butt;stroke-linejoin:miter;stroke-miterlimit:4;stroke-dasharray:none;stroke-opacity:1"
       d="m 227.887,410.964 -8.305,-4.801 v 9.602 z" /><path
       inkscape:connector-curvature="0"
       id="path192"
       style="fill:none;stroke:#000000;stroke-width:2.4000001;stroke-linecap:butt;stroke-linejoin:miter;stroke-miterlimit:4;stroke-dasharray:none;stroke-opacity:1"
       d="m 159.875,535.531 h 61.48" /><path
       inkscape:connector-curvature="0"
       id="path194"
       style="fill:#000000;fill-opacity:1;fill-rule:evenodd;stroke:none;stroke-width:0.1"
       d="m 226.895,535.53 -8.305,-4.8 v 9.601 z" /><path
       inkscape:connector-curvature="0"
       id="path196"
       style="fill:none;stroke:#000000;stroke-width:1.20000005;stroke-linecap:butt;stroke-linejoin:miter;stroke-miterlimit:4;stroke-dasharray:none;stroke-opacity:1"
       d="m 226.895,535.531 -8.305,-4.801 v 9.601 z" /><path
       inkscape:connector-curvature="0"
       id="path198"
       style="fill:#000000;fill-opacity:1;fill-rule:evenodd;stroke:none;stroke-width:0.1"
       d="m 440.301,342.651 v 0.137 l -0.071,0.207 v 0.348 l -0.07,0.207 -0.066,0.137 -0.071,0.207 -0.07,0.14 -0.066,0.137 -0.071,0.207 -0.07,0.137 -0.066,0.14 -0.141,0.137 -0.066,0.141 -0.141,0.136 -0.137,0.137 -0.14,0.07 -0.137,0.137 -0.137,0.141 -0.14,0.066 -0.137,0.141 -0.137,0.066 -0.14,0.071 -0.207,0.07 -0.137,0.066 -0.207,0.071 -0.141,0.07 h -0.207 l -0.137,0.066 h -0.55 c -2.004,0 -3.664,-1.656 -3.664,-3.59 0,-2.003 1.66,-3.66 3.664,-3.66 2,0 3.66,1.657 3.66,3.66 z" /><path
       inkscape:connector-curvature="0"
       id="path200"
       style="fill:#000000;fill-opacity:1;fill-rule:evenodd;stroke:none;stroke-width:0.1"
       d="m 440.301,315.089 v 0.211 l -0.071,0.137 v 0.414 l -0.07,0.136 -0.066,0.207 -0.071,0.141 -0.07,0.137 -0.066,0.207 -0.071,0.14 -0.07,0.137 -0.066,0.137 -0.141,0.141 -0.066,0.136 -0.141,0.137 -0.137,0.141 -0.14,0.136 -0.137,0.137 -0.137,0.07 -0.14,0.141 -0.137,0.066 -0.137,0.071 -0.14,0.07 -0.207,0.137 h -0.137 l -0.207,0.07 -0.141,0.066 -0.207,0.071 h -0.344 l -0.207,0.07 h -0.136 c -2.004,0 -3.664,-1.66 -3.664,-3.664 0,-2 1.66,-3.66 3.664,-3.66 2,0 3.66,1.66 3.66,3.66 z" /><path
       inkscape:connector-curvature="0"
       id="path202"
       style="fill:#000000;fill-opacity:1;fill-rule:evenodd;stroke:none;stroke-width:0.1"
       d="m 440.301,287.601 v 0.136 l -0.071,0.207 v 0.348 l -0.07,0.207 -0.066,0.137 -0.071,0.207 -0.07,0.137 -0.066,0.14 -0.071,0.207 -0.07,0.137 -0.066,0.141 -0.141,0.136 -0.066,0.137 -0.278,0.277 -0.14,0.071 -0.274,0.273 -0.14,0.07 -0.137,0.137 -0.137,0.07 -0.14,0.071 -0.207,0.066 -0.137,0.071 -0.207,0.07 -0.141,0.07 h -0.207 l -0.137,0.067 h -0.55 c -2.004,0 -3.664,-1.657 -3.664,-3.59 0,-2.004 1.66,-3.66 3.664,-3.66 2,0 3.66,1.656 3.66,3.66 z" /><path
       inkscape:connector-curvature="0"
       id="path204"
       style="fill:#000000;fill-opacity:1;fill-rule:evenodd;stroke:none;stroke-width:0.1"
       d="m 421.723,545.53 v 0.129 l -0.043,0.043 v 0.043 l -0.039,0.043 -0.043,0.043 h -0.039 v 0.043 h -0.043 l -0.043,0.039 h -0.203 c -0.208,0 -0.208,-0.039 -0.739,-0.594 l -1.929,-2.429 c -1.071,2.004 -3.204,3.023 -5.872,3.023 -5.214,0 -10.101,-4.851 -10.101,-9.965 0,-3.406 2.176,-5.363 4.23,-6.004 l 4.391,-1.191 c 1.52,-0.383 3.777,-1.023 3.777,-4.473 0,-3.789 -3.367,-7.793 -7.39,-7.793 -2.625,0 -7.145,0.938 -7.145,6.176 0,1.024 0.207,2.043 0.246,2.301 0.043,0.168 0.082,0.211 0.082,0.297 0,0.426 -0.285,0.469 -0.492,0.469 -0.203,0 -0.285,-0.043 -0.41,-0.172 -0.164,-0.168 -2.465,-9.836 -2.465,-9.965 0,-0.254 0.207,-0.426 0.453,-0.426 0.207,0 0.246,0.043 0.739,0.641 l 2.011,2.426 c 1.766,-2.469 4.559,-3.067 6.899,-3.067 5.586,0 10.429,5.621 10.429,10.902 0,2.899 -1.394,4.344 -2.011,4.942 -0.946,0.98 -1.559,1.148 -5.215,2.086 -0.903,0.254 -2.383,0.679 -2.75,0.765 -1.11,0.383 -2.504,1.622 -2.504,3.875 0,3.407 3.285,7.028 7.184,7.028 3.41,0 5.914,-1.832 5.914,-6.559 0,-1.363 -0.164,-2.129 -0.164,-2.383 0,-0.043 0,-0.425 0.492,-0.425 0.41,0 0.449,0.125 0.574,0.851 z" /><path
       inkscape:connector-curvature="0"
       id="path206"
       style="fill:#000000;fill-opacity:1;fill-rule:evenodd;stroke:none;stroke-width:0.1"
       d="m 432.973,560.351 -0.496,-0.383 -0.493,-0.383 -0.449,-0.383 -0.453,-0.426 -0.41,-0.425 -0.371,-0.426 -0.367,-0.469 -0.372,-0.426 -0.328,-0.468 -0.285,-0.469 -0.578,-0.938 -0.246,-0.511 -0.246,-0.469 -0.203,-0.508 -0.207,-0.469 -0.203,-0.511 -0.164,-0.512 -0.168,-0.469 -0.122,-0.512 -0.124,-0.468 -0.122,-0.508 -0.082,-0.469 -0.125,-0.512 -0.039,-0.468 -0.082,-0.469 -0.043,-0.469 -0.039,-0.469 -0.043,-0.468 -0.039,-0.426 v -0.895 c 0,-4.172 1.192,-10.644 6.899,-14.777 0.203,0 0.574,0 0.574,0.344 0,0.168 -0.082,0.254 -0.289,0.426 -3.817,3.574 -5.215,8.601 -5.215,13.964 0,8.008 2.957,11.926 5.297,14.141 0.125,0.086 0.207,0.168 0.207,0.34 0,0.34 -0.371,0.34 -0.574,0.34 z" /><path
       inkscape:connector-curvature="0"
       id="path208"
       style="fill:#000000;fill-opacity:1;fill-rule:evenodd;stroke:none;stroke-width:0.1"
       d="m 445.164,556.987 v 0.426 l -0.039,0.043 v 0.129 l -0.043,0.043 v 0.039 h -0.039 v 0.043 H 445 v 0.043 h -0.121 v 0.043 h -0.574 c -1.848,-1.832 -4.438,-1.875 -5.625,-1.875 v -1.062 c 0.695,0 2.586,0 4.144,0.808 v -15.074 c 0,-0.981 0,-1.363 -2.875,-1.363 h -1.066 v -1.067 c 0.492,0 4.023,0.129 5.094,0.129 0.902,0 4.515,-0.129 5.171,-0.129 v 1.067 h -1.109 c -2.875,0 -2.875,0.382 -2.875,1.363 z" /><path
       inkscape:connector-curvature="0"
       id="path210"
       style="fill:#000000;fill-opacity:1;fill-rule:evenodd;stroke:none;stroke-width:0.1"
       d="m 454.445,560.351 h -0.328 v -0.043 h -0.082 v -0.043 h -0.043 l -0.039,-0.039 v -0.043 h -0.043 v -0.172 c 0,-0.172 0.082,-0.254 0.246,-0.426 2.465,-2.344 5.215,-6.344 5.215,-14.012 0,-6.175 -1.848,-10.859 -4.969,-13.754 -0.492,-0.511 -0.492,-0.554 -0.492,-0.679 0,-0.172 0.082,-0.344 0.371,-0.344 0.328,0 3.078,1.918 4.969,5.621 1.23,2.473 2.094,5.664 2.094,9.113 0,4.219 -1.235,10.692 -6.899,14.821 z" /><path
       inkscape:connector-curvature="0"
       id="path212"
       style="fill:#000000;fill-opacity:1;fill-rule:evenodd;stroke:none;stroke-width:0.1"
       d="m 427.469,516.487 h 2.914 c 0.578,0 0.945,0 0.945,0.684 0,0.383 -0.367,0.383 -0.863,0.383 h -2.75 l 1.066,4.387 c 0.043,0.168 0.082,0.296 0.082,0.425 0,0.551 -0.367,0.938 -0.941,0.938 -0.738,0 -1.152,-0.512 -1.356,-1.281 -0.207,-0.723 0.164,0.683 -1.109,-4.469 h -2.914 c -0.535,0 -0.902,0 -0.902,-0.641 0,-0.426 0.328,-0.426 0.82,-0.426 h 2.75 l -1.684,-6.984 c -0.207,-0.723 -0.453,-1.789 -0.453,-2.172 0,-1.746 1.438,-2.808 3.082,-2.808 3.203,0 5.008,4.128 5.008,4.511 0,0.387 -0.367,0.387 -0.492,0.387 -0.328,0 -0.371,-0.043 -0.574,-0.555 -0.821,-1.875 -2.258,-3.535 -3.86,-3.535 -0.617,0 -0.984,0.383 -0.984,1.449 0,0.297 0.082,0.934 0.164,1.235 z" /><path
       inkscape:connector-curvature="0"
       id="path214"
       style="fill:#000000;fill-opacity:1;fill-rule:evenodd;stroke:none;stroke-width:0.1"
       d="m 446.07,511.507 h 8.785 c 0.372,0 1.067,0 1.067,0.68 0,0.765 -0.656,0.765 -1.067,0.765 h -8.785 v 9.071 c 0,0.386 0,1.109 -0.699,1.109 -0.699,0 -0.699,-0.68 -0.699,-1.109 v -9.071 h -8.828 c -0.367,0 -1.067,0 -1.067,-0.722 0,-0.723 0.657,-0.723 1.067,-0.723 h 8.828 v -9.113 c 0,-0.383 0,-1.067 0.656,-1.067 0.742,0 0.742,0.641 0.742,1.067 z" /><path
       inkscape:connector-curvature="0"
       id="path216"
       style="fill:#000000;fill-opacity:1;fill-rule:evenodd;stroke:none;stroke-width:0.1"
       d="m 467.5,523.644 v 0.425 h -0.039 v 0.168 h -0.043 v 0.086 h -0.039 v 0.043 h -0.043 l -0.039,0.043 h -0.082 l -0.043,0.043 h -0.531 c -1.848,-1.832 -4.434,-1.875 -5.625,-1.875 v -1.062 c 0.695,0 2.586,0 4.144,0.808 v -15.074 c 0,-0.98 0,-1.363 -2.871,-1.363 h -1.07 v -1.067 c 0.492,0 4.023,0.086 5.093,0.086 0.903,0 4.516,-0.086 5.133,-0.086 v 1.067 h -1.07 c -2.875,0 -2.875,0.383 -2.875,1.363 z" /><path
       inkscape:connector-curvature="0"
       id="path218"
       style="fill:none;stroke:#000000;stroke-width:0.80000001;stroke-linecap:butt;stroke-linejoin:miter;stroke-miterlimit:4;stroke-dasharray:none;stroke-opacity:1"
       d="m 481.777,529.808 c 0,-25.465 -20.644,-46.109 -46.109,-46.109 -25.469,0 -46.113,20.644 -46.113,46.109 0,25.469 20.644,46.113 46.113,46.113 25.465,0 46.109,-20.644 46.109,-46.113 z" /><path
       inkscape:connector-curvature="0"
       id="path220"
       style="fill:#000000;fill-opacity:1;fill-rule:evenodd;stroke:none;stroke-width:0.1"
       d="m 419.355,232.769 v 0.121 l -0.039,0.039 v 0.039 l -0.078,0.078 h -0.039 v 0.039 h -0.043 l -0.039,0.043 h -0.199 c -0.199,0 -0.199,-0.043 -0.715,-0.559 l -1.867,-2.265 c -1.035,1.867 -3.102,2.824 -5.688,2.824 -5.05,0 -9.781,-4.535 -9.781,-9.309 0,-3.179 2.106,-5.007 4.094,-5.605 l 4.254,-1.113 c 1.473,-0.36 3.66,-0.953 3.66,-4.176 0,-3.539 -3.262,-7.277 -7.156,-7.277 -2.547,0 -6.922,0.875 -6.922,5.765 0,0.957 0.199,1.91 0.238,2.149 0.039,0.16 0.082,0.199 0.082,0.277 0,0.398 -0.281,0.437 -0.476,0.437 -0.2,0 -0.282,-0.039 -0.399,-0.156 -0.16,-0.16 -2.387,-9.187 -2.387,-9.308 0,-0.239 0.2,-0.395 0.438,-0.395 0.199,0 0.238,0.039 0.715,0.594 l 1.949,2.269 c 1.711,-2.308 4.414,-2.863 6.68,-2.863 5.41,0 10.101,5.246 10.101,10.18 0,2.703 -1.351,4.054 -1.949,4.613 -0.914,0.914 -1.512,1.07 -5.051,1.945 -0.875,0.243 -2.304,0.637 -2.664,0.719 -1.074,0.356 -2.426,1.512 -2.426,3.617 0,3.18 3.184,6.563 6.961,6.563 3.301,0 5.727,-1.711 5.727,-6.125 0,-1.274 -0.16,-1.988 -0.16,-2.227 0,-0.039 0,-0.398 0.476,-0.398 0.399,0 0.438,0.121 0.559,0.797 z" /><path
       inkscape:connector-curvature="0"
       id="path222"
       style="fill:#000000;fill-opacity:1;fill-rule:evenodd;stroke:none;stroke-width:0.1"
       d="m 430.254,246.609 -0.481,-0.36 -0.476,-0.359 -0.438,-0.356 -0.437,-0.398 -0.395,-0.399 -0.359,-0.398 -0.359,-0.438 -0.356,-0.394 -0.32,-0.438 -0.555,-0.875 -0.281,-0.437 -0.238,-0.477 -0.239,-0.437 -0.199,-0.481 -0.199,-0.437 -0.195,-0.477 -0.161,-0.476 -0.16,-0.438 -0.117,-0.476 -0.121,-0.438 -0.117,-0.476 -0.082,-0.438 -0.117,-0.476 -0.043,-0.438 -0.079,-0.437 -0.117,-1.313 -0.043,-0.398 v -0.836 c 0,-3.895 1.157,-9.942 6.684,-13.797 0.195,0 0.555,0 0.555,0.316 0,0.16 -0.079,0.239 -0.278,0.399 -3.699,3.34 -5.051,8.031 -5.051,13.043 0,7.476 2.864,11.132 5.129,13.203 0.121,0.078 0.2,0.156 0.2,0.316 0,0.321 -0.36,0.321 -0.555,0.321 z" /><path
       inkscape:connector-curvature="0"
       id="path224"
       style="fill:#000000;fill-opacity:1;fill-rule:evenodd;stroke:none;stroke-width:0.1"
       d="m 461.148,242.511 v 0.121 l 0.043,0.078 v 0.078 l 0.039,0.082 0.04,0.078 v 0.078 l 0.039,0.043 v 0.079 l 0.039,0.078 0.121,0.121 0.039,0.078 0.039,0.039 0.039,0.043 0.043,0.039 h 0.078 l 0.078,0.039 0.039,0.039 h 0.082 l 0.078,0.039 h 0.082 l 0.039,0.039 h 0.239 l 0.078,0.043 h 0.637 l 0.078,0.039 h 0.359 c 0.598,0 0.953,0 0.953,0.555 0,0.437 -0.316,0.437 -0.832,0.437 h -3.781 c -0.793,0 -0.832,-0.039 -1.191,-0.554 l -10.735,-15.789 -2.746,15.59 c -0.16,0.714 -0.16,0.753 -0.992,0.753 h -3.977 c -0.558,0 -0.918,0 -0.918,-0.636 0,-0.356 0.36,-0.356 0.957,-0.356 0.438,0 0.555,0 1.075,-0.082 0.515,-0.039 0.593,-0.117 0.593,-0.394 0,0 0,-0.16 -0.117,-0.598 l -3.5,-13.879 c -0.238,-0.953 -0.676,-1.867 -2.902,-1.949 -0.199,0 -0.559,-0.039 -0.559,-0.637 0,0 0,-0.355 0.399,-0.355 0.836,0 1.988,0.117 2.902,0.117 0.676,0 2.266,-0.117 2.945,-0.117 0.118,0 0.555,0 0.555,0.597 0,0.356 -0.359,0.395 -0.598,0.395 -1.789,0.043 -1.789,0.758 -1.789,1.156 0,0.117 0,0.238 0.121,0.676 l 3.7,14.711 2.98,-16.82 c 0.078,-0.477 0.16,-0.715 0.559,-0.715 0.394,0 0.632,0.277 0.793,0.597 l 11.691,17.215 h 0.039 l -3.937,-15.664 c -0.196,-0.957 -0.278,-1.156 -2.426,-1.156 -0.516,0 -0.832,0 -0.832,-0.637 0,0 0,-0.355 0.437,-0.355 0.516,0 1.153,0.078 1.707,0.078 0.559,0 1.196,0.039 1.75,0.039 0.797,0 2.746,-0.117 3.539,-0.117 0.161,0 0.598,0 0.598,0.597 0,0.395 -0.359,0.395 -0.914,0.395 0,0 -0.559,0 -1.035,0.043 -0.637,0.078 -0.637,0.156 -0.637,0.437 0,0.157 0.082,0.434 0.121,0.594 z" /><path
       inkscape:connector-curvature="0"
       id="path226"
       style="fill:#000000;fill-opacity:1;fill-rule:evenodd;stroke:none;stroke-width:0.1"
       d="m 468.426,246.609 h -0.278 l -0.039,-0.043 h -0.039 l -0.039,-0.04 h -0.043 v -0.039 h -0.039 v -0.078 h -0.039 v -0.121 c 0,-0.16 0.078,-0.238 0.238,-0.398 2.426,-2.188 5.09,-5.922 5.09,-13.082 0,-5.766 -1.828,-10.141 -4.812,-12.844 -0.477,-0.477 -0.516,-0.516 -0.516,-0.637 0,-0.16 0.078,-0.316 0.36,-0.316 0.316,0 2.98,1.789 4.808,5.246 1.234,2.309 2.031,5.289 2.031,8.512 0,3.937 -1.156,9.98 -6.683,13.84 z" /><path
       inkscape:connector-curvature="0"
       id="path228"
       style="fill:#000000;fill-opacity:1;fill-rule:evenodd;stroke:none;stroke-width:0.1"
       d="m 424.922,205.648 h 2.824 c 0.559,0 0.914,0 0.914,0.636 0,0.36 -0.355,0.36 -0.832,0.36 h -2.664 l 1.031,4.093 c 0.039,0.161 0.082,0.282 0.082,0.399 0,0.515 -0.359,0.875 -0.918,0.875 -0.714,0 -1.113,-0.477 -1.308,-1.192 -0.199,-0.675 0.156,0.637 -1.074,-4.175 h -2.825 c -0.515,0 -0.875,0 -0.875,-0.598 0,-0.398 0.317,-0.398 0.797,-0.398 h 2.664 l -1.633,-6.52 c -0.199,-0.676 -0.437,-1.672 -0.437,-2.027 0,-1.633 1.394,-2.625 2.984,-2.625 3.102,0 4.852,3.855 4.852,4.215 0,0.355 -0.359,0.355 -0.477,0.355 -0.32,0 -0.359,-0.039 -0.558,-0.516 -0.797,-1.75 -2.188,-3.3 -3.739,-3.3 -0.597,0 -0.953,0.359 -0.953,1.351 0,0.278 0.078,0.875 0.157,1.153 z" /><path
       inkscape:connector-curvature="0"
       id="path230"
       style="fill:#000000;fill-opacity:1;fill-rule:evenodd;stroke:none;stroke-width:0.1"
       d="m 442.938,200.995 h 8.511 c 0.356,0 1.031,0 1.031,0.637 0,0.715 -0.636,0.715 -1.031,0.715 h -8.511 v 8.472 c 0,0.356 0,1.032 -0.676,1.032 -0.676,0 -0.676,-0.637 -0.676,-1.032 v -8.472 h -8.551 c -0.355,0 -1.031,0 -1.031,-0.676 0,-0.676 0.633,-0.676 1.031,-0.676 h 8.551 v -8.508 c 0,-0.359 0,-0.996 0.637,-0.996 0.715,0 0.715,0.598 0.715,0.996 z" /><path
       inkscape:connector-curvature="0"
       id="path232"
       style="fill:#000000;fill-opacity:1;fill-rule:evenodd;stroke:none;stroke-width:0.1"
       d="m 463.695,212.327 v 0.399 h -0.039 v 0.16 h -0.039 v 0.078 h -0.043 v 0.043 h -0.039 l -0.039,0.039 h -0.078 l -0.039,0.039 h -0.52 c -1.789,-1.711 -4.293,-1.75 -5.445,-1.75 v -0.996 c 0.676,0 2.504,0 4.016,0.758 v -14.078 c 0,-0.914 0,-1.274 -2.785,-1.274 h -1.036 v -0.992 c 0.481,0 3.899,0.078 4.934,0.078 0.875,0 4.375,-0.078 4.969,-0.078 v 0.992 h -1.032 c -2.785,0 -2.785,0.36 -2.785,1.274 z" /><path
       inkscape:connector-curvature="0"
       id="path234"
       style="fill:none;stroke:#000000;stroke-width:0.80000001;stroke-linecap:butt;stroke-linejoin:miter;stroke-miterlimit:4;stroke-dasharray:none;stroke-opacity:1"
       d="m 481.664,221.519 c 0,-25.465 -20.644,-46.109 -46.109,-46.109 -25.465,0 -46.11,20.644 -46.11,46.109 0,25.465 20.645,46.109 46.11,46.109 25.465,0 46.109,-20.644 46.109,-46.109 z" /><path
       inkscape:connector-curvature="0"
       id="path236"
       style="fill:#000000;fill-opacity:1;fill-rule:evenodd;stroke:none;stroke-width:0.1"
       d="m 422.062,420.878 v 0.121 l -0.039,0.039 v 0.043 l -0.043,0.039 -0.039,0.039 h -0.039 v 0.039 h -0.039 l -0.039,0.039 h -0.203 c -0.199,0 -0.199,-0.039 -0.719,-0.558 l -1.879,-2.278 c -1.035,1.879 -3.113,2.836 -5.711,2.836 -5.074,0 -9.832,-4.554 -9.832,-9.347 0,-3.199 2.118,-5.035 4.118,-5.637 l 4.273,-1.117 c 1.481,-0.36 3.68,-0.957 3.68,-4.195 0,-3.555 -3.278,-7.313 -7.196,-7.313 -2.554,0 -6.953,0.879 -6.953,5.793 0,0.961 0.2,1.918 0.243,2.16 0.039,0.16 0.078,0.199 0.078,0.278 0,0.402 -0.278,0.441 -0.481,0.441 -0.199,0 -0.277,-0.039 -0.398,-0.16 -0.16,-0.16 -2.399,-9.231 -2.399,-9.352 0,-0.238 0.203,-0.398 0.442,-0.398 0.199,0 0.238,0.039 0.718,0.597 l 1.957,2.278 c 1.719,-2.317 4.438,-2.875 6.715,-2.875 5.434,0 10.149,5.273 10.149,10.23 0,2.715 -1.36,4.074 -1.957,4.633 -0.918,0.918 -1.52,1.078 -5.074,1.957 -0.879,0.242 -2.321,0.641 -2.68,0.723 -1.078,0.359 -2.438,1.515 -2.438,3.633 0,3.199 3.2,6.593 6.993,6.593 3.316,0 5.753,-1.718 5.753,-6.152 0,-1.277 -0.156,-1.996 -0.156,-2.238 0,-0.039 0,-0.399 0.477,-0.399 0.402,0 0.441,0.121 0.562,0.797 z" /><path
       inkscape:connector-curvature="0"
       id="path238"
       style="fill:#000000;fill-opacity:1;fill-rule:evenodd;stroke:none;stroke-width:0.1"
       d="m 433.012,434.784 -0.961,-0.718 -0.438,-0.36 -0.441,-0.398 -0.399,-0.403 -0.359,-0.398 -0.359,-0.438 -0.36,-0.402 -0.32,-0.437 -0.281,-0.442 -0.278,-0.437 -0.281,-0.442 -0.238,-0.476 -0.242,-0.442 -0.2,-0.48 -0.199,-0.438 -0.199,-0.48 -0.16,-0.481 -0.16,-0.437 -0.121,-0.481 -0.118,-0.441 -0.121,-0.477 -0.078,-0.441 -0.121,-0.48 -0.039,-0.438 -0.082,-0.441 -0.039,-0.438 -0.039,-0.441 -0.043,-0.438 -0.039,-0.402 v -0.836 c 0,-3.918 1.16,-9.992 6.715,-13.867 0.199,0 0.558,0 0.558,0.32 0,0.16 -0.078,0.238 -0.281,0.399 -3.715,3.355 -5.074,8.074 -5.074,13.105 0,7.516 2.879,11.191 5.156,13.27 0.121,0.078 0.199,0.156 0.199,0.316 0,0.32 -0.359,0.32 -0.558,0.32 z" /><path
       inkscape:connector-curvature="0"
       id="path240"
       style="fill:#000000;fill-opacity:1;fill-rule:evenodd;stroke:none;stroke-width:0.1"
       d="m 449.633,419.003 h -0.957 c -0.082,-0.602 -0.36,-2.238 -0.719,-2.519 -0.242,-0.161 -2.398,-0.161 -2.758,-0.161 h -5.156 c 2.957,2.559 3.918,3.36 5.594,4.676 2.078,1.641 3.996,3.356 3.996,5.996 0,3.356 -2.957,5.391 -6.551,5.391 -3.437,0 -5.797,-2.395 -5.797,-4.953 0,-1.399 1.199,-1.559 1.481,-1.559 0.679,0 1.476,0.481 1.476,1.481 0,0.476 -0.199,1.476 -1.637,1.476 0.84,1.957 2.758,2.559 4.075,2.559 2.797,0 4.238,-2.16 4.238,-4.395 0,-2.437 -1.719,-4.355 -2.641,-5.355 l -6.711,-6.594 c -0.281,-0.238 -0.281,-0.32 -0.281,-1.078 h 11.508 z" /><path
       inkscape:connector-curvature="0"
       id="path242"
       style="fill:#000000;fill-opacity:1;fill-rule:evenodd;stroke:none;stroke-width:0.1"
       d="m 453.91,434.784 h -0.32 v -0.039 h -0.082 v -0.039 h -0.039 l -0.039,-0.039 v -0.043 h -0.039 v -0.16 c 0,-0.16 0.078,-0.238 0.238,-0.398 2.398,-2.2 5.074,-5.954 5.074,-13.145 0,-5.797 -1.797,-10.191 -4.836,-12.906 -0.476,-0.481 -0.476,-0.52 -0.476,-0.641 0,-0.16 0.078,-0.32 0.359,-0.32 0.32,0 2.996,1.797 4.836,5.273 1.195,2.321 2.035,5.317 2.035,8.551 0,3.957 -1.199,10.031 -6.711,13.906 z" /><path
       inkscape:connector-curvature="0"
       id="path244"
       style="fill:#000000;fill-opacity:1;fill-rule:evenodd;stroke:none;stroke-width:0.1"
       d="m 427.656,393.628 h 2.836 c 0.563,0 0.922,0 0.922,0.641 0,0.359 -0.359,0.359 -0.84,0.359 h -2.679 l 1.039,4.113 c 0.043,0.16 0.082,0.282 0.082,0.403 0,0.519 -0.36,0.879 -0.918,0.879 -0.723,0 -1.121,-0.481 -1.321,-1.2 -0.199,-0.679 0.161,0.637 -1.078,-4.195 h -2.84 c -0.515,0 -0.879,0 -0.879,-0.602 0,-0.398 0.321,-0.398 0.801,-0.398 h 2.676 l -1.637,-6.555 c -0.199,-0.679 -0.441,-1.675 -0.441,-2.035 0,-1.64 1.402,-2.637 3,-2.637 3.117,0 4.875,3.875 4.875,4.235 0,0.359 -0.359,0.359 -0.481,0.359 -0.32,0 -0.359,-0.039 -0.558,-0.519 -0.801,-1.758 -2.199,-3.317 -3.758,-3.317 -0.598,0 -0.957,0.36 -0.957,1.36 0,0.277 0.078,0.879 0.16,1.156 z" /><path
       inkscape:connector-curvature="0"
       id="path246"
       style="fill:#000000;fill-opacity:1;fill-rule:evenodd;stroke:none;stroke-width:0.1"
       d="m 445.758,388.952 h 8.551 c 0.359,0 1.039,0 1.039,0.641 0,0.719 -0.641,0.719 -1.039,0.719 h -8.551 v 8.511 c 0,0.36 0,1.039 -0.68,1.039 -0.68,0 -0.68,-0.64 -0.68,-1.039 v -8.511 h -8.589 c -0.36,0 -1.039,0 -1.039,-0.68 0,-0.68 0.64,-0.68 1.039,-0.68 h 8.589 v -8.551 c 0,-0.359 0,-1 0.641,-1 0.719,0 0.719,0.602 0.719,1 z" /><path
       inkscape:connector-curvature="0"
       id="path248"
       style="fill:#000000;fill-opacity:1;fill-rule:evenodd;stroke:none;stroke-width:0.1"
       d="m 466.617,400.343 v 0.398 h -0.043 v 0.16 h -0.039 v 0.079 h -0.039 v 0.039 h -0.039 l -0.039,0.043 h -0.082 l -0.039,0.039 h -0.52 c -1.797,-1.719 -4.316,-1.758 -5.476,-1.758 v -1 c 0.679,0 2.519,0 4.039,0.758 v -14.145 c 0,-0.918 0,-1.277 -2.797,-1.277 h -1.039 v -1 c 0.476,0 3.914,0.082 4.953,0.082 0.879,0 4.395,-0.082 4.996,-0.082 v 1 h -1.039 c -2.797,0 -2.797,0.359 -2.797,1.277 z" /><path
       inkscape:connector-curvature="0"
       id="path250"
       style="fill:none;stroke:#000000;stroke-width:0.80000001;stroke-linecap:butt;stroke-linejoin:miter;stroke-miterlimit:4;stroke-dasharray:none;stroke-opacity:1"
       d="m 481.281,407.714 c 0,-25.465 -20.644,-46.109 -46.109,-46.109 -25.469,0 -46.113,20.644 -46.113,46.109 0,25.465 20.644,46.11 46.113,46.11 25.465,0 46.109,-20.645 46.109,-46.11 z" /><path
       inkscape:connector-curvature="0"
       id="path252"
       style="fill:#000000;fill-opacity:1;fill-rule:evenodd;stroke:none;stroke-width:0.1"
       d="m 409.773,54.343 0.043,0.125 0.043,0.1289 v 0.125 l 0.043,0.1722 0.043,0.168 0.086,0.168 0.039,0.1711 0.043,0.2109 0.086,0.168 0.086,0.2109 0.082,0.2149 0.172,0.4222 0.082,0.211 0.129,0.2109 0.125,0.2148 0.129,0.2114 0.125,0.1679 0.129,0.211 0.168,0.1711 0.129,0.2109 0.168,0.168 0.211,0.1719 0.171,0.125 0.211,0.1289 0.168,0.125 0.129,0.0429 0.125,0.0864 0.086,0.0429 0.125,0.0391 0.129,0.043 h 0.125 l 0.086,0.0429 0.129,0.043 h 0.297 l 0.125,0.043 h 0.129 c 0.211,0 1.226,0 2.117,-0.5512 -1.188,-0.2109 -2.035,-1.2688 -2.035,-2.2848 0,-0.6801 0.469,-1.484 1.609,-1.484 0.934,0 2.289,0.761 2.289,2.4571 0,2.2027 -2.5,2.7929 -3.941,2.7929 -2.453,0 -3.938,-2.2429 -4.446,-3.2191 -1.058,2.7969 -3.3,3.2191 -4.531,3.2191 -4.402,0 -6.816,-5.4609 -6.816,-6.4769 0,-0.4262 0.426,-0.4262 0.508,-0.4262 0.339,0 0.468,0.086 0.55,0.4692 1.442,4.4449 4.235,5.5039 5.676,5.5039 0.762,0 2.242,-0.3832 2.242,-2.836 0,-1.3121 -0.675,-4.109 -2.242,-9.9961 -0.679,-2.625 -2.16,-4.4019 -4.023,-4.4019 -0.254,0 -1.227,0 -2.117,0.55 1.058,0.2109 1.988,1.1019 1.988,2.2859 0,1.1442 -0.93,1.484 -1.567,1.484 -1.269,0 -2.328,-1.102 -2.328,-2.457 0,-1.9489 2.118,-2.7539 3.981,-2.7539 2.797,0 4.32,2.9218 4.445,3.1757 0.469,-1.5668 1.992,-3.1757 4.531,-3.1757 4.364,0 6.778,5.4218 6.778,6.48 0,0.4219 -0.383,0.4219 -0.512,0.4219 -0.379,0 -0.465,-0.2109 -0.547,-0.4648 -1.398,-4.5313 -4.277,-5.5461 -5.633,-5.5461 -1.652,0 -2.328,1.3551 -2.328,2.7929 0,0.9329 0.254,1.8629 0.719,3.6872 z" /><path
       inkscape:connector-curvature="0"
       id="path254"
       style="fill:#000000;fill-opacity:1;fill-rule:evenodd;stroke:none;stroke-width:0.1"
       d="m 427.094,46.9762 h 3.008 c 0.546,0 0.929,0 0.929,0.6328 0,0.425 -0.383,0.425 -0.89,0.425 h -2.793 l 1.101,4.3601 c 0.043,0.1289 0.082,0.2969 0.082,0.425 0,0.5079 -0.422,0.9297 -1.015,0.9297 -0.719,0 -1.184,-0.5078 -1.395,-1.2687 -0.215,-0.7621 0.168,0.675 -1.101,-4.4461 h -3.051 c -0.551,0 -0.93,0 -0.93,-0.6789 0,-0.3789 0.34,-0.3789 0.887,-0.3789 h 2.797 l -1.739,-6.9461 c -0.168,-0.761 -0.422,-1.8199 -0.422,-2.2031 0,-1.734 1.481,-2.793 3.133,-2.793 3.305,0 5.168,4.1058 5.168,4.489 0,0.4211 -0.383,0.4211 -0.468,0.4211 -0.379,0 -0.379,-0.082 -0.633,-0.5929 -0.805,-1.8211 -2.328,-3.4692 -3.981,-3.4692 -0.593,0 -1.015,0.3789 -1.015,1.4371 0,0.2969 0.125,0.8911 0.168,1.1879 z" /><path
       inkscape:connector-curvature="0"
       id="path256"
       style="fill:#000000;fill-opacity:1;fill-rule:evenodd;stroke:none;stroke-width:0.1"
       d="m 446.234,41.9801 h 9.059 c 0.383,0 1.102,0 1.102,0.7179 0,0.7192 -0.676,0.7192 -1.102,0.7192 h -9.059 v 9.0629 c 0,0.3789 0,1.0578 -0.679,1.0578 -0.762,0 -0.762,-0.6367 -0.762,-1.0578 v -9.0629 h -9.105 c -0.379,0 -1.098,0 -1.098,-0.6762 0,-0.7609 0.719,-0.7609 1.098,-0.7609 h 9.105 v -9.0199 c 0,-0.3832 0,-1.1012 0.719,-1.1012 0.722,0 0.722,0.675 0.722,1.1012 z" /><path
       inkscape:connector-curvature="0"
       id="path258"
       style="fill:#000000;fill-opacity:1;fill-rule:evenodd;stroke:none;stroke-width:0.1"
       d="m 468.336,54.0461 v 0.5078 l -0.043,0.043 v 0.082 l -0.043,0.043 v 0.0429 h -0.043 v 0.0434 h -0.082 v 0.043 h -0.215 v 0.0429 h -0.465 c -1.863,-1.864 -4.57,-1.907 -5.8,-1.907 v -1.0582 c 0.718,0 2.667,0 4.32,0.8473 V 37.7449 c 0,-0.9758 0,-1.3551 -2.965,-1.3551 h -1.145 v -1.0589 c 0.551,0.0429 4.196,0.125 5.293,0.125 0.891,0 4.618,-0.0821 5.293,-0.125 v 1.0589 h -1.14 c -2.965,0 -2.965,0.3793 -2.965,1.3551 z" /><path
       inkscape:connector-curvature="0"
       id="path260"
       style="fill:#000000;stroke:#000000;stroke-width:0.80000001;stroke-linecap:butt;stroke-linejoin:miter;stroke-miterlimit:4;stroke-dasharray:none;stroke-opacity:1;fill-opacity:0.27450982"
       d="m 481.996,47.5109 c 0,-25.4691 -20.644,-46.11324 -46.113,-46.11324 -25.465,0 -46.11,20.64414 -46.11,46.11324 0,25.4649 20.645,46.109 46.11,46.109 25.469,0 46.113,-20.6441 46.113,-46.109 z" /><path
       inkscape:connector-curvature="0"
       id="path262"
       style="fill:none;stroke:#000000;stroke-width:2.31749988;stroke-linecap:butt;stroke-linejoin:miter;stroke-miterlimit:4;stroke-dasharray:none;stroke-opacity:1"
       d="M 437.156,175.304 V 99.4836" /><path
       inkscape:connector-curvature="0"
       id="path264"
       style="fill:#000000;fill-opacity:1;fill-rule:evenodd;stroke:none;stroke-width:0.1"
       d="m 437.156,94.1359 -4.636,8.0191 h 9.269 z" /><path
       inkscape:connector-curvature="0"
       id="path266"
       style="fill:none;stroke:#000000;stroke-width:1.15874994;stroke-linecap:butt;stroke-linejoin:miter;stroke-miterlimit:4;stroke-dasharray:none;stroke-opacity:1"
       d="m 437.156,94.1359 -4.636,8.0201 h 9.269 z" /><path
       inkscape:connector-curvature="0"
       id="path268"
       style="fill:none;stroke:#000000;stroke-width:2.34817004;stroke-linecap:butt;stroke-linejoin:miter;stroke-miterlimit:4;stroke-dasharray:none;stroke-opacity:1"
       d="m 471.586,378.617 c 0,0 54.82,-151.704 -5.77,-290.6803" /><path
       inkscape:connector-curvature="0"
       id="path270"
       style="fill:#000000;fill-opacity:1;fill-rule:evenodd;stroke:none;stroke-width:0.1"
       d="m 463.652,82.968 -1.058,9.3242 8.609,-3.7543 z" /><path
       inkscape:connector-curvature="0"
       id="path272"
       style="fill:none;stroke:#000000;stroke-width:1.17408001;stroke-linecap:butt;stroke-linejoin:miter;stroke-miterlimit:4;stroke-dasharray:none;stroke-opacity:1"
       d="m 463.652,82.9684 -1.058,9.3238 8.609,-3.7543 z" /><path
       inkscape:connector-curvature="0"
       id="path274"
       style="fill:none;stroke:#000000;stroke-width:2.4000001;stroke-linecap:butt;stroke-linejoin:miter;stroke-miterlimit:4;stroke-dasharray:none;stroke-opacity:1"
       d="m 469.879,499.566 c 0,0 101.144,-217.168 7.933,-433.3402" /><path
       inkscape:connector-curvature="0"
       id="path276"
       style="fill:#000000;fill-opacity:1;fill-rule:evenodd;stroke:none;stroke-width:0.1"
       d="m 475.617,61.1398 -1.121,9.5231 8.816,-3.8008 z" /><path
       inkscape:connector-curvature="0"
       id="path278"
       style="fill:none;stroke:#000000;stroke-width:1.20000005;stroke-linecap:butt;stroke-linejoin:miter;stroke-miterlimit:4;stroke-dasharray:none;stroke-opacity:1"
       d="m 475.617,61.1391 -1.121,9.5238 8.817,-3.8004 z" /><path
       inkscape:connector-curvature="0"
       id="path280"
       style="fill:none;stroke:#000000;stroke-width:2.4000001;stroke-linecap:butt;stroke-linejoin:miter;stroke-miterlimit:4;stroke-dasharray:none;stroke-opacity:1"
       d="m 481.777,216.952 h 61.481" /><path
       inkscape:connector-curvature="0"
       id="path282"
       style="fill:#000000;fill-opacity:1;fill-rule:evenodd;stroke:none;stroke-width:0.1"
       d="m 548.797,216.952 -8.305,-4.801 v 9.602 z" /><path
       inkscape:connector-curvature="0"
       id="path284"
       style="fill:none;stroke:#000000;stroke-width:1.20000005;stroke-linecap:butt;stroke-linejoin:miter;stroke-miterlimit:4;stroke-dasharray:none;stroke-opacity:1"
       d="m 548.797,216.952 -8.305,-4.8 v 9.601 z" /><path
       inkscape:connector-curvature="0"
       id="path286"
       style="fill:none;stroke:#000000;stroke-width:2.4000001;stroke-linecap:butt;stroke-linejoin:miter;stroke-miterlimit:4;stroke-dasharray:none;stroke-opacity:1"
       d="m 480.391,410.55 h 61.48" /><path
       inkscape:connector-curvature="0"
       id="path288"
       style="fill:#000000;fill-opacity:1;fill-rule:evenodd;stroke:none;stroke-width:0.1"
       d="m 547.41,410.55 -8.301,-4.797 v 9.598 z" /><path
       inkscape:connector-curvature="0"
       id="path290"
       style="fill:none;stroke:#000000;stroke-width:1.20000005;stroke-linecap:butt;stroke-linejoin:miter;stroke-miterlimit:4;stroke-dasharray:none;stroke-opacity:1"
       d="m 547.41,410.55 -8.301,-4.797 v 9.598 z" /><path
       inkscape:connector-curvature="0"
       id="path292"
       style="fill:none;stroke:#000000;stroke-width:2.4000001;stroke-linecap:butt;stroke-linejoin:miter;stroke-miterlimit:4;stroke-dasharray:none;stroke-opacity:1"
       d="m 479.398,535.12 h 61.481" /><path
       inkscape:connector-curvature="0"
       id="path294"
       style="fill:#000000;fill-opacity:1;fill-rule:evenodd;stroke:none;stroke-width:0.1"
       d="m 546.422,535.12 -8.305,-4.801 v 9.598 z" /><path
       inkscape:connector-curvature="0"
       id="path296"
       style="fill:none;stroke:#000000;stroke-width:1.20000005;stroke-linecap:butt;stroke-linejoin:miter;stroke-miterlimit:4;stroke-dasharray:none;stroke-opacity:1"
       d="m 546.422,535.12 -8.305,-4.8 v 9.597 z" /><path
       inkscape:connector-curvature="0"
       id="path298"
       style="fill:none;stroke:#000000;stroke-width:2.4000001;stroke-linecap:butt;stroke-linejoin:miter;stroke-miterlimit:4;stroke-dasharray:none;stroke-opacity:1"
       d="M 2.70313,217.304 H 64.184" /><path
       inkscape:connector-curvature="0"
       id="path300"
       style="fill:#000000;fill-opacity:1;fill-rule:evenodd;stroke:none;stroke-width:0.1"
       d="m 69.723,217.304 -8.305,-4.801 v 9.598 z" /><path
       inkscape:connector-curvature="0"
       id="path302"
       style="fill:none;stroke:#000000;stroke-width:1.20000005;stroke-linecap:butt;stroke-linejoin:miter;stroke-miterlimit:4;stroke-dasharray:none;stroke-opacity:1"
       d="m 69.723,217.304 -8.305,-4.801 v 9.598 z" /><path
       inkscape:connector-curvature="0"
       id="path304"
       style="fill:none;stroke:#000000;stroke-width:2.4000001;stroke-linecap:butt;stroke-linejoin:miter;stroke-miterlimit:4;stroke-dasharray:none;stroke-opacity:1"
       d="M 1.31602,410.902 H 62.7969" /><path
       inkscape:connector-curvature="0"
       id="path306"
       style="fill:#000000;fill-opacity:1;fill-rule:evenodd;stroke:none;stroke-width:0.1"
       d="m 68.3359,410.901 -8.3007,-4.8 v 9.601 z" /><path
       inkscape:connector-curvature="0"
       id="path308"
       style="fill:none;stroke:#000000;stroke-width:1.20000005;stroke-linecap:butt;stroke-linejoin:miter;stroke-miterlimit:4;stroke-dasharray:none;stroke-opacity:1"
       d="m 68.3359,410.902 -8.3007,-4.801 v 9.601 z" /><path
       inkscape:connector-curvature="0"
       id="path310"
       style="fill:none;stroke:#000000;stroke-width:2.4000001;stroke-linecap:butt;stroke-linejoin:miter;stroke-miterlimit:4;stroke-dasharray:none;stroke-opacity:1"
       d="M 0.323828,535.468 H 61.8051" /><path
       inkscape:connector-curvature="0"
       id="path312"
       style="fill:#000000;fill-opacity:1;fill-rule:evenodd;stroke:none;stroke-width:0.1"
       d="m 67.348,535.468 -8.305,-4.797 v 9.598 z" /><path
       inkscape:connector-curvature="0"
       id="path314"
       style="fill:none;stroke:#000000;stroke-width:1.20000005;stroke-linecap:butt;stroke-linejoin:miter;stroke-miterlimit:4;stroke-dasharray:none;stroke-opacity:1"
       d="m 67.348,535.468 -8.305,-4.797 v 9.598 z" /></g></svg>